# Blender v3.6.23 OBJ File: 'mcp-tesst.blend'
# www.blender.org
mtllib neko_cat.mtl
o Character_neko_cat_Sphere.103
v -0.000000 0.407535 -0.841470
v -0.000000 0.234649 -0.933880
v -0.000000 -0.703605 -0.841470
v 0.050493 0.832750 -0.198443
v 0.099046 0.775845 -0.379644
v 0.143792 0.683435 -0.546640
v 0.183013 0.559072 -0.693013
v 0.215200 0.407535 -0.813138
v 0.239117 0.234649 -0.902399
v 0.253846 0.047055 -0.957366
v 0.258819 -0.148035 -0.975926
v 0.253846 -0.343125 -0.957366
v 0.239117 -0.530718 -0.902399
v 0.215200 -0.703605 -0.813138
v 0.183013 -0.855142 -0.693013
v 0.143792 -0.979505 -0.546640
v 0.099046 -1.071914 -0.379644
v 0.050493 -1.128820 -0.198443
v 0.097545 0.832750 -0.178953
v 0.191342 0.775845 -0.341414
v 0.277785 0.683435 -0.491138
v 0.353553 0.559072 -0.622373
v 0.415735 0.407535 -0.730074
v 0.461940 0.234649 -0.810103
v 0.490392 0.047055 -0.859385
v 0.500000 -0.148035 -0.876026
v 0.490392 -0.343125 -0.859385
v 0.461940 -0.530718 -0.810103
v 0.415735 -0.703605 -0.730074
v 0.353553 -0.855142 -0.622373
v 0.277785 -0.979505 -0.491138
v 0.191342 -1.071914 -0.341414
v 0.097545 -1.128820 -0.178953
v 0.137950 0.832750 -0.147950
v 0.270598 0.775845 -0.280598
v 0.392847 0.683435 -0.402848
v 0.500000 0.559072 -0.510000
v 0.587938 0.407535 -0.597938
v 0.653281 0.234649 -0.663282
v 0.693520 0.047055 -0.703520
v 0.707107 -0.148035 -0.717107
v 0.693520 -0.343125 -0.703520
v 0.653281 -0.530718 -0.663282
v 0.587938 -0.703605 -0.597938
v 0.500000 -0.855142 -0.510000
v 0.392847 -0.979505 -0.402848
v 0.270598 -1.071914 -0.280598
v 0.137950 -1.128820 -0.147950
v 0.168953 0.832750 -0.107545
v 0.331413 0.775845 -0.201342
v 0.481138 0.683435 -0.287785
v 0.612372 0.559072 -0.363554
v 0.720074 0.407535 -0.425735
v 0.800103 0.234649 -0.471940
v 0.849385 0.047055 -0.500393
v 0.866025 -0.148035 -0.510000
v 0.849385 -0.343125 -0.500393
v 0.800103 -0.530718 -0.471940
v 0.720074 -0.703605 -0.425735
v 0.612372 -0.855142 -0.363554
v 0.481138 -0.979505 -0.287785
v 0.331413 -1.071914 -0.201342
v 0.168953 -1.128820 -0.107545
v 0.188443 0.832750 -0.060493
v 0.369644 0.775845 -0.109046
v 0.536639 0.683435 -0.153792
v 0.683012 0.559072 -0.193013
v 0.803138 0.407535 -0.225200
v 0.892399 0.234649 -0.249118
v 0.947365 0.047055 -0.263846
v 0.965926 -0.148035 -0.268819
v 0.947365 -0.343125 -0.263846
v 0.892399 -0.530718 -0.249118
v 0.803138 -0.703605 -0.225200
v 0.683012 -0.855142 -0.193013
v 0.536639 -0.979505 -0.153792
v 0.369644 -1.071914 -0.109046
v 0.188443 -1.128820 -0.060493
v 0.195090 0.832750 -0.010000
v 0.382683 0.775845 -0.010000
v 0.555570 0.683435 -0.010000
v 0.707106 0.559072 -0.010000
v 0.831469 0.407535 -0.010000
v 0.923879 0.234649 -0.010000
v 0.980785 0.047055 -0.010000
v 1.000000 -0.148035 -0.010000
v 0.980785 -0.343125 -0.010000
v 0.923879 -0.530718 -0.010000
v 0.831469 -0.703605 -0.010000
v 0.707106 -0.855142 -0.010000
v 0.555570 -0.979505 -0.010000
v 0.382683 -1.071914 -0.010000
v 0.195090 -1.128820 -0.010000
v 0.188443 0.832750 0.040493
v 0.369644 0.775845 0.089045
v 0.536639 0.683435 0.133792
v 0.683012 0.559072 0.173012
v 0.803138 0.407535 0.205200
v 0.892399 0.234649 0.229117
v 0.947365 0.047055 0.243846
v 0.965925 -0.148035 0.248819
v 0.947365 -0.343125 0.243846
v 0.892399 -0.530718 0.229117
v 0.803138 -0.703605 0.205200
v 0.683012 -0.855142 0.173012
v 0.536639 -0.979505 0.133792
v 0.369644 -1.071914 0.089045
v 0.188443 -1.128820 0.040493
v 0.168953 0.832750 0.087545
v 0.331413 0.775845 0.181341
v 0.481138 0.683435 0.267785
v 0.612372 0.559072 0.343553
v 0.720074 0.407535 0.405735
v 0.800103 0.234649 0.451939
v 0.849385 0.047055 0.480392
v 0.866025 -0.148035 0.490000
v 0.849385 -0.343125 0.480392
v 0.800103 -0.530718 0.451939
v 0.720074 -0.703605 0.405735
v 0.612372 -0.855142 0.343553
v 0.481138 -0.979505 0.267785
v 0.331413 -1.071914 0.181341
v 0.168953 -1.128820 0.087545
v 0.137949 0.832750 0.127949
v 0.270598 0.775845 0.260598
v 0.392847 0.683435 0.382847
v 0.500000 0.559072 0.490000
v 0.587937 0.407535 0.577938
v 0.653281 0.234649 0.643281
v 0.693520 0.047055 0.683519
v 0.707106 -0.148035 0.697106
v 0.693520 -0.343125 0.683519
v 0.653281 -0.530718 0.643281
v 0.587937 -0.703605 0.577938
v 0.500000 -0.855142 0.490000
v 0.392847 -0.979505 0.382847
v 0.270598 -1.071914 0.260598
v 0.137949 -1.128820 0.127949
v 0.097545 0.832750 0.158953
v 0.191341 0.775845 0.321413
v 0.277785 0.683435 0.471138
v 0.353553 0.559072 0.602372
v 0.415734 0.407535 0.710074
v 0.461939 0.234649 0.790103
v 0.490392 0.047055 0.839384
v 0.500000 -0.148035 0.856025
v 0.490392 -0.343125 0.839384
v 0.461939 -0.530718 0.790103
v 0.415734 -0.703605 0.710074
v 0.353553 -0.855142 0.602372
v 0.277785 -0.979505 0.471138
v 0.191341 -1.071914 0.321413
v 0.097545 -1.128820 0.158953
v 0.050493 0.832750 0.178442
v 0.099046 0.775845 0.359643
v 0.143792 0.683435 0.526639
v 0.183012 0.559072 0.673012
v 0.215200 0.407535 0.793138
v 0.239117 0.234649 0.882399
v 0.253846 0.047055 0.937365
v 0.258819 -0.148035 0.955925
v 0.253846 -0.343125 0.937365
v 0.239117 -0.530718 0.882399
v 0.215200 -0.703605 0.793138
v 0.183012 -0.855142 0.673012
v 0.143792 -0.979505 0.526639
v 0.099046 -1.071914 0.359643
v 0.050493 -1.128820 0.178442
v -0.000000 0.832750 0.185090
v -0.000000 0.775845 0.372683
v -0.000000 0.683435 0.545570
v -0.000000 0.559072 0.697106
v -0.000000 0.407535 0.821469
v -0.000000 0.234649 0.913879
v -0.000000 0.047055 0.970785
v -0.000000 -0.148035 0.989999
v -0.000000 -0.343125 0.970785
v -0.000000 -0.530718 0.913879
v -0.000000 -0.703605 0.821469
v -0.000000 -0.855142 0.697106
v -0.000000 -0.979505 0.545570
v -0.000000 -1.071914 0.372683
v -0.000000 -1.128820 0.185090
v -0.050493 0.832750 0.178442
v -0.099046 0.775845 0.359643
v -0.143792 0.683435 0.526639
v -0.183013 0.559072 0.673012
v -0.215200 0.407535 0.793137
v -0.239118 0.234649 0.882399
v -0.253846 0.047055 0.937365
v -0.258819 -0.148035 0.955925
v -0.253846 -0.343125 0.937365
v -0.239118 -0.530718 0.882399
v -0.215200 -0.703605 0.793137
v -0.183013 -0.855142 0.673012
v -0.143792 -0.979505 0.526639
v -0.099046 -1.071914 0.359643
v -0.050493 -1.128820 0.178442
v -0.000000 0.851965 -0.010000
v -0.097545 0.832750 0.158953
v -0.191342 0.775845 0.321413
v -0.277785 0.683435 0.471137
v -0.353553 0.559072 0.602372
v -0.415735 0.407535 0.710073
v -0.461940 0.234649 0.790103
v -0.490393 0.047055 0.839384
v -0.500000 -0.148035 0.856025
v -0.490393 -0.343125 0.839384
v -0.461940 -0.530718 0.790103
v -0.415735 -0.703605 0.710073
v -0.353553 -0.855142 0.602372
v -0.277785 -0.979505 0.471137
v -0.191342 -1.071914 0.321413
v -0.097545 -1.128820 0.158953
v -0.000000 -1.148035 -0.010000
v -0.137950 0.832750 0.127949
v -0.270598 0.775845 0.260598
v -0.392848 0.683435 0.382847
v -0.500000 0.559072 0.489999
v -0.587938 0.407535 0.577937
v -0.653282 0.234649 0.643281
v -0.693520 0.047055 0.683519
v -0.707107 -0.148035 0.697106
v -0.693520 -0.343125 0.683519
v -0.653282 -0.530718 0.643281
v -0.587938 -0.703605 0.577937
v -0.500000 -0.855142 0.489999
v -0.392848 -0.979505 0.382847
v -0.270598 -1.071914 0.260598
v -0.137950 -1.128820 0.127949
v -0.168953 0.832750 0.087545
v -0.331414 0.775845 0.181341
v -0.481138 0.683435 0.267785
v -0.612372 0.559072 0.343553
v -0.720074 0.407535 0.405734
v -0.800103 0.234649 0.451939
v -0.849385 0.047055 0.480392
v -0.866025 -0.148035 0.489999
v -0.849385 -0.343125 0.480392
v -0.800103 -0.530718 0.451939
v -0.720074 -0.703605 0.405734
v -0.612372 -0.855142 0.343553
v -0.481138 -0.979505 0.267785
v -0.331414 -1.071914 0.181341
v -0.168953 -1.128820 0.087545
v -0.188443 0.832750 0.040493
v -0.369644 0.775845 0.089045
v -0.536640 0.683435 0.133792
v -0.683012 0.559072 0.173012
v -0.803138 0.407535 0.205200
v -0.892399 0.234649 0.229117
v -0.947366 0.047055 0.243846
v -0.965926 -0.148035 0.248819
v -0.947366 -0.343125 0.243846
v -0.892399 -0.530718 0.229117
v -0.803138 -0.703605 0.205200
v -0.683012 -0.855142 0.173012
v -0.536640 -0.979505 0.133792
v -0.369644 -1.071914 0.089045
v -0.188443 -1.128820 0.040493
v -0.195090 0.832750 -0.010000
v -0.382684 0.775845 -0.010000
v -0.555570 0.683435 -0.010000
v -0.707106 0.559072 -0.010000
v -0.831470 0.407535 -0.010000
v -0.923879 0.234649 -0.010000
v -0.980785 0.047055 -0.010000
v -1.000000 -0.148035 -0.010000
v -0.980785 -0.343125 -0.010000
v -0.923879 -0.530718 -0.010000
v -0.831470 -0.703605 -0.010000
v -0.707106 -0.855142 -0.010000
v -0.555570 -0.979505 -0.010000
v -0.382684 -1.071914 -0.010000
v -0.195090 -1.128820 -0.010000
v -0.188443 0.832750 -0.060493
v -0.369644 0.775845 -0.109046
v -0.536640 0.683435 -0.153792
v -0.683012 0.559072 -0.193013
v -0.803138 0.407535 -0.225201
v -0.892399 0.234649 -0.249118
v -0.947366 0.047055 -0.263846
v -0.965925 -0.148035 -0.268819
v -0.947366 -0.343125 -0.263846
v -0.892399 -0.530718 -0.249118
v -0.803138 -0.703605 -0.225201
v -0.683012 -0.855142 -0.193013
v -0.536640 -0.979505 -0.153792
v -0.369644 -1.071914 -0.109046
v -0.188443 -1.128820 -0.060493
v -0.168953 0.832750 -0.107545
v -0.331414 0.775845 -0.201342
v -0.481138 0.683435 -0.287785
v -0.612372 0.559072 -0.363553
v -0.720074 0.407535 -0.425735
v -0.800103 0.234649 -0.471940
v -0.849385 0.047055 -0.500393
v -0.866025 -0.148035 -0.510000
v -0.849385 -0.343125 -0.500393
v -0.800103 -0.530718 -0.471940
v -0.720074 -0.703605 -0.425735
v -0.612372 -0.855142 -0.363553
v -0.481138 -0.979505 -0.287785
v -0.331414 -1.071914 -0.201342
v -0.168953 -1.128820 -0.107545
v -0.137950 0.832750 -0.147950
v -0.270598 0.775845 -0.280598
v -0.392847 0.683435 -0.402848
v -0.500000 0.559072 -0.510000
v -0.587938 0.407535 -0.597938
v -0.653281 0.234649 -0.663282
v -0.693520 0.047055 -0.703520
v -0.707106 -0.148035 -0.717107
v -0.693520 -0.343125 -0.703520
v -0.653281 -0.530718 -0.663282
v -0.587938 -0.703605 -0.597938
v -0.500000 -0.855142 -0.510000
v -0.392847 -0.979505 -0.402848
v -0.270598 -1.071914 -0.280598
v -0.137950 -1.128820 -0.147950
v -0.097545 0.832750 -0.178953
v -0.191342 0.775845 -0.341414
v -0.277785 0.683435 -0.491138
v -0.353553 0.559072 -0.622372
v -0.415735 0.407535 -0.730074
v -0.461940 0.234649 -0.810103
v -0.490393 0.047055 -0.859385
v -0.500000 -0.148035 -0.876025
v -0.490393 -0.343125 -0.859385
v -0.461940 -0.530718 -0.810103
v -0.415735 -0.703605 -0.730074
v -0.353553 -0.855142 -0.622372
v -0.277785 -0.979505 -0.491138
v -0.191342 -1.071914 -0.341414
v -0.097545 -1.128820 -0.178953
v -0.050493 0.832750 -0.198443
v -0.099046 0.775845 -0.379644
v -0.143792 0.683435 -0.546640
v -0.183013 0.559072 -0.693012
v -0.215200 0.407535 -0.813138
v -0.239117 0.234649 -0.902399
v -0.253846 0.047055 -0.957366
v -0.258819 -0.148035 -0.975926
v -0.253846 -0.343125 -0.957366
v -0.239117 -0.530718 -0.902399
v -0.215200 -0.703605 -0.813138
v -0.183013 -0.855142 -0.693012
v -0.143792 -0.979505 -0.546640
v -0.099046 -1.071914 -0.379644
v -0.050493 -1.128820 -0.198443
v -0.000000 0.832750 -0.205091
v -0.000000 0.775845 -0.392684
v -0.000000 0.683435 -0.565570
v -0.000000 0.559072 -0.717106
v -0.000000 0.047055 -0.990785
v -0.000000 -0.148035 -1.010000
v -0.000000 -0.343125 -0.990785
v 0.000000 -0.530718 -0.933879
v -0.000000 -0.855142 -0.717106
v -0.000000 -0.979505 -0.565570
v -0.000000 -1.071914 -0.392684
v -0.000000 -1.128820 -0.205091
v 0.604604 0.508199 -0.404614
v 0.671329 0.507194 -0.388668
v 0.733668 0.504217 -0.360161
v 0.789224 0.499384 -0.320188
v 0.835862 0.492879 -0.270286
v 0.871790 0.484953 -0.212373
v 0.895627 0.475911 -0.148674
v 0.906458 0.466099 -0.081636
v 0.903866 0.455895 -0.013836
v 0.887950 0.445691 0.052119
v 0.859322 0.435880 0.113697
v 0.819083 0.426837 0.168530
v 0.768779 0.418911 0.214511
v 0.710343 0.412407 0.249873
v 0.646020 0.407573 0.273258
v 0.578283 0.404597 0.283766
v 0.509734 0.403592 0.280994
v 0.443008 0.404597 0.265048
v 0.380670 0.407573 0.236541
v 0.325114 0.412407 0.196568
v 0.278476 0.418911 0.146666
v 0.242548 0.426837 0.088753
v 0.218710 0.435880 0.025054
v 0.207880 0.445691 -0.041984
v 0.210472 0.455895 -0.109783
v 0.226388 0.466099 -0.175739
v 0.255015 0.475911 -0.237317
v 0.295255 0.484953 -0.292150
v 0.345559 0.492879 -0.338131
v 0.403995 0.499384 -0.373493
v 0.468318 0.504217 -0.396878
v 0.536055 0.507194 -0.407386
v 0.542831 1.148035 0.041809
v -0.604604 0.508199 -0.404614
v -0.536055 0.507194 -0.407386
v -0.468318 0.504217 -0.396878
v -0.403996 0.499384 -0.373493
v -0.345559 0.492879 -0.338131
v -0.295255 0.484953 -0.292150
v -0.255016 0.475911 -0.237317
v -0.226388 0.466099 -0.175739
v -0.210473 0.455895 -0.109783
v -0.207880 0.445691 -0.041984
v -0.218711 0.435880 0.025054
v -0.242548 0.426837 0.088753
v -0.278476 0.418911 0.146666
v -0.325114 0.412407 0.196568
v -0.380670 0.407573 0.236541
v -0.443009 0.404597 0.265048
v -0.509734 0.403592 0.280994
v -0.578283 0.404597 0.283766
v -0.646020 0.407573 0.273258
v -0.710343 0.412407 0.249873
v -0.768779 0.418911 0.214511
v -0.819084 0.426837 0.168530
v -0.859323 0.435880 0.113697
v -0.887950 0.445691 0.052119
v -0.903866 0.455895 -0.013836
v -0.906458 0.466099 -0.081636
v -0.895628 0.475911 -0.148674
v -0.871790 0.484953 -0.212373
v -0.835862 0.492879 -0.270286
v -0.789224 0.499384 -0.320188
v -0.733668 0.504217 -0.360161
v -0.671330 0.507194 -0.388668
v -0.542831 1.148035 0.041809
v 0.320000 0.140233 0.817612
v 0.320000 0.009577 0.871731
v 0.339134 0.194353 0.876858
v 0.355355 0.172676 0.848762
v 0.366194 0.140233 0.829989
v 0.370000 0.101965 0.823397
v 0.366194 0.063697 0.829989
v 0.355355 0.031254 0.848762
v 0.339134 0.009577 0.876858
v 0.320000 0.201965 0.910000
v 0.353141 0.194353 0.890866
v 0.381237 0.172676 0.874644
v 0.400010 0.140233 0.863806
v 0.406602 0.101965 0.860000
v 0.400010 0.063697 0.863806
v 0.381237 0.031254 0.874644
v 0.353141 0.009577 0.890866
v 0.358268 0.194353 0.910000
v 0.390710 0.172676 0.910000
v 0.412388 0.140233 0.910000
v 0.420000 0.101965 0.910000
v 0.412388 0.063697 0.910000
v 0.390710 0.031254 0.910000
v 0.358268 0.009577 0.910000
v 0.353141 0.194353 0.929134
v 0.381237 0.172676 0.945355
v 0.400010 0.140233 0.956194
v 0.406602 0.101965 0.960000
v 0.400010 0.063697 0.956194
v 0.381237 0.031254 0.945355
v 0.353141 0.009577 0.929134
v 0.339134 0.194353 0.943141
v 0.355355 0.172676 0.971237
v 0.366194 0.140233 0.990010
v 0.370000 0.101965 0.996602
v 0.366194 0.063697 0.990010
v 0.355355 0.031254 0.971237
v 0.339134 0.009577 0.943141
v 0.320000 0.194353 0.948268
v 0.320000 0.172676 0.980710
v 0.320000 0.140233 1.002388
v 0.320000 0.101965 1.010000
v 0.320000 0.063697 1.002388
v 0.320000 0.031254 0.980710
v 0.320000 0.009577 0.948268
v 0.300866 0.194353 0.943141
v 0.284644 0.172676 0.971237
v 0.273806 0.140233 0.990010
v 0.270000 0.101965 0.996602
v 0.273806 0.063697 0.990010
v 0.284644 0.031254 0.971237
v 0.300866 0.009577 0.943141
v 0.320000 0.001965 0.910000
v 0.286858 0.194353 0.929134
v 0.258763 0.172676 0.945355
v 0.239990 0.140233 0.956194
v 0.233397 0.101965 0.960000
v 0.239990 0.063697 0.956194
v 0.258763 0.031254 0.945355
v 0.286858 0.009577 0.929134
v 0.281731 0.194353 0.910000
v 0.249289 0.172676 0.910000
v 0.227612 0.140233 0.910000
v 0.220000 0.101965 0.910000
v 0.227612 0.063697 0.910000
v 0.249289 0.031254 0.910000
v 0.281731 0.009577 0.910000
v 0.286858 0.194353 0.890866
v 0.258763 0.172676 0.874644
v 0.239990 0.140233 0.863806
v 0.233397 0.101965 0.860000
v 0.239990 0.063697 0.863806
v 0.258763 0.031254 0.874644
v 0.286858 0.009577 0.890866
v 0.300866 0.194353 0.876858
v 0.284644 0.172676 0.848762
v 0.273806 0.140233 0.829989
v 0.270000 0.101965 0.823397
v 0.273806 0.063697 0.829989
v 0.284644 0.031254 0.848762
v 0.300866 0.009577 0.876858
v 0.320000 0.194353 0.871731
v 0.320000 0.172676 0.839289
v 0.320000 0.101965 0.810000
v 0.320000 0.063697 0.817612
v 0.320000 0.031254 0.839289
v -0.320000 0.140233 0.817612
v -0.320000 0.009577 0.871731
v -0.300866 0.194353 0.876858
v -0.284645 0.172676 0.848762
v -0.273806 0.140233 0.829989
v -0.270000 0.101965 0.823397
v -0.273806 0.063697 0.829989
v -0.284645 0.031254 0.848762
v -0.300866 0.009577 0.876858
v -0.320000 0.201965 0.910000
v -0.286859 0.194353 0.890866
v -0.258763 0.172676 0.874644
v -0.239990 0.140233 0.863806
v -0.233398 0.101965 0.860000
v -0.239990 0.063697 0.863806
v -0.258763 0.031254 0.874644
v -0.286859 0.009577 0.890866
v -0.281732 0.194353 0.910000
v -0.249289 0.172676 0.910000
v -0.227612 0.140233 0.910000
v -0.220000 0.101965 0.910000
v -0.227612 0.063697 0.910000
v -0.249289 0.031254 0.910000
v -0.281732 0.009577 0.910000
v -0.286859 0.194353 0.929134
v -0.258763 0.172676 0.945355
v -0.239990 0.140233 0.956194
v -0.233398 0.101965 0.960000
v -0.239990 0.063697 0.956194
v -0.258763 0.031254 0.945355
v -0.286859 0.009577 0.929134
v -0.300866 0.194353 0.943141
v -0.284645 0.172676 0.971237
v -0.273806 0.140233 0.990010
v -0.270000 0.101965 0.996602
v -0.273806 0.063697 0.990010
v -0.284645 0.031254 0.971237
v -0.300866 0.009577 0.943141
v -0.320000 0.194353 0.948268
v -0.320000 0.172676 0.980710
v -0.320000 0.140233 1.002388
v -0.320000 0.101965 1.010000
v -0.320000 0.063697 1.002388
v -0.320000 0.031254 0.980710
v -0.320000 0.009577 0.948268
v -0.339134 0.194353 0.943141
v -0.355356 0.172676 0.971237
v -0.366194 0.140233 0.990010
v -0.370000 0.101965 0.996602
v -0.366194 0.063697 0.990010
v -0.355356 0.031254 0.971237
v -0.339134 0.009577 0.943141
v -0.320000 0.001965 0.910000
v -0.353142 0.194353 0.929134
v -0.381237 0.172676 0.945355
v -0.400010 0.140233 0.956194
v -0.406603 0.101965 0.960000
v -0.400010 0.063697 0.956194
v -0.381237 0.031254 0.945355
v -0.353142 0.009577 0.929134
v -0.358268 0.194353 0.910000
v -0.390711 0.172676 0.910000
v -0.412388 0.140233 0.910000
v -0.420000 0.101965 0.910000
v -0.412388 0.063697 0.910000
v -0.390711 0.031254 0.910000
v -0.358268 0.009577 0.910000
v -0.353142 0.194353 0.890866
v -0.381237 0.172676 0.874644
v -0.400010 0.140233 0.863806
v -0.406603 0.101965 0.860000
v -0.400010 0.063697 0.863806
v -0.381237 0.031254 0.874644
v -0.353142 0.009577 0.890866
v -0.339134 0.194353 0.876858
v -0.355356 0.172676 0.848762
v -0.366194 0.140233 0.829989
v -0.370000 0.101965 0.823397
v -0.366194 0.063697 0.829989
v -0.355356 0.031254 0.848762
v -0.339134 0.009577 0.876858
v -0.320000 0.194353 0.871731
v -0.320000 0.172676 0.839289
v -0.320000 0.101965 0.810000
v -0.320000 0.063697 0.817612
v -0.320000 0.031254 0.839289
v 0.550000 -0.007495 0.853927
v 0.550000 -0.028739 0.840301
v 0.576788 -0.007495 0.856080
v 0.599497 -0.028739 0.844280
v 0.614671 -0.060532 0.836395
v 0.620000 -0.098035 0.833627
v 0.614671 -0.135538 0.836395
v 0.599497 -0.167331 0.844280
v 0.576788 -0.188575 0.856080
v 0.596398 -0.007495 0.861963
v 0.635732 -0.028739 0.855150
v 0.662014 -0.060532 0.850598
v 0.671243 -0.098035 0.849000
v 0.662014 -0.135538 0.850598
v 0.635732 -0.167331 0.855150
v 0.596398 -0.188575 0.861963
v 0.603576 -0.007495 0.870000
v 0.648995 -0.028739 0.870000
v 0.679343 -0.060532 0.870000
v 0.690000 -0.098035 0.870000
v 0.679343 -0.135538 0.870000
v 0.648995 -0.167331 0.870000
v 0.603576 -0.188575 0.870000
v 0.596398 -0.007495 0.878036
v 0.635732 -0.028739 0.884849
v 0.662014 -0.060532 0.889401
v 0.671243 -0.098035 0.891000
v 0.662014 -0.135538 0.889401
v 0.635732 -0.167331 0.884849
v 0.596398 -0.188575 0.878036
v 0.576788 -0.007495 0.883919
v 0.599497 -0.028739 0.895719
v 0.614671 -0.060532 0.903604
v 0.620000 -0.098035 0.906373
v 0.614671 -0.135538 0.903604
v 0.599497 -0.167331 0.895719
v 0.576788 -0.188575 0.883919
v 0.550000 -0.007495 0.886072
v 0.550000 -0.028739 0.899698
v 0.550000 -0.060532 0.908803
v 0.550000 -0.098035 0.912000
v 0.550000 -0.135538 0.908803
v 0.550000 -0.167331 0.899698
v 0.550000 -0.188575 0.886072
v 0.523212 -0.007495 0.883919
v 0.500502 -0.028739 0.895719
v 0.485328 -0.060532 0.903604
v 0.480000 -0.098035 0.906373
v 0.485328 -0.135538 0.903604
v 0.500502 -0.167331 0.895719
v 0.523212 -0.188575 0.883919
v 0.550000 -0.000035 0.870000
v 0.503602 -0.007495 0.878036
v 0.464268 -0.028739 0.884849
v 0.437985 -0.060532 0.889401
v 0.428756 -0.098035 0.891000
v 0.437985 -0.135538 0.889401
v 0.464268 -0.167331 0.884849
v 0.503602 -0.188575 0.878036
v 0.550000 -0.196035 0.870000
v 0.496424 -0.007495 0.870000
v 0.451005 -0.028739 0.870000
v 0.420657 -0.060532 0.870000
v 0.410000 -0.098035 0.870000
v 0.420657 -0.135538 0.870000
v 0.451005 -0.167331 0.870000
v 0.496424 -0.188575 0.870000
v 0.503602 -0.007495 0.861963
v 0.464268 -0.028739 0.855150
v 0.437985 -0.060532 0.850598
v 0.428756 -0.098035 0.849000
v 0.437985 -0.135538 0.850598
v 0.464268 -0.167331 0.855150
v 0.503602 -0.188575 0.861963
v 0.523212 -0.007495 0.856080
v 0.500502 -0.028739 0.844280
v 0.485328 -0.060532 0.836395
v 0.480000 -0.098035 0.833627
v 0.485328 -0.135538 0.836395
v 0.500502 -0.167331 0.844280
v 0.523212 -0.188575 0.856080
v 0.550000 -0.060532 0.831197
v 0.550000 -0.098035 0.828000
v 0.550000 -0.135538 0.831197
v 0.550000 -0.167331 0.840301
v 0.550000 -0.188575 0.853927
v -0.550000 -0.007495 0.853927
v -0.550000 -0.028739 0.840301
v -0.523212 -0.007495 0.856080
v -0.500503 -0.028739 0.844280
v -0.485329 -0.060532 0.836395
v -0.480000 -0.098035 0.833627
v -0.485329 -0.135538 0.836395
v -0.500503 -0.167331 0.844280
v -0.523212 -0.188575 0.856080
v -0.503602 -0.007495 0.861963
v -0.464268 -0.028739 0.855150
v -0.437986 -0.060532 0.850598
v -0.428757 -0.098035 0.849000
v -0.437986 -0.135538 0.850598
v -0.464268 -0.167331 0.855150
v -0.503602 -0.188575 0.861963
v -0.496424 -0.007495 0.870000
v -0.451005 -0.028739 0.870000
v -0.420657 -0.060532 0.870000
v -0.410000 -0.098035 0.870000
v -0.420657 -0.135538 0.870000
v -0.451005 -0.167331 0.870000
v -0.496424 -0.188575 0.870000
v -0.503602 -0.007495 0.878036
v -0.464268 -0.028739 0.884849
v -0.437986 -0.060532 0.889401
v -0.428757 -0.098035 0.891000
v -0.437986 -0.135538 0.889401
v -0.464268 -0.167331 0.884849
v -0.503602 -0.188575 0.878036
v -0.523212 -0.007495 0.883919
v -0.500503 -0.028739 0.895719
v -0.485329 -0.060532 0.903604
v -0.480000 -0.098035 0.906373
v -0.485329 -0.135538 0.903604
v -0.500503 -0.167331 0.895719
v -0.523212 -0.188575 0.883919
v -0.550000 -0.007495 0.886072
v -0.550000 -0.028739 0.899698
v -0.550000 -0.060532 0.908803
v -0.550000 -0.098035 0.912000
v -0.550000 -0.135538 0.908803
v -0.550000 -0.167331 0.899698
v -0.550000 -0.188575 0.886072
v -0.576788 -0.007495 0.883919
v -0.599498 -0.028739 0.895719
v -0.614672 -0.060532 0.903604
v -0.620000 -0.098035 0.906373
v -0.614672 -0.135538 0.903604
v -0.599498 -0.167331 0.895719
v -0.576788 -0.188575 0.883919
v -0.550000 -0.000035 0.870000
v -0.596398 -0.007495 0.878036
v -0.635732 -0.028739 0.884849
v -0.662015 -0.060532 0.889401
v -0.671244 -0.098035 0.891000
v -0.662015 -0.135538 0.889401
v -0.635732 -0.167331 0.884849
v -0.596398 -0.188575 0.878036
v -0.550000 -0.196035 0.870000
v -0.603576 -0.007495 0.870000
v -0.648995 -0.028739 0.870000
v -0.679343 -0.060532 0.870000
v -0.690000 -0.098035 0.870000
v -0.679343 -0.135538 0.870000
v -0.648995 -0.167331 0.870000
v -0.603576 -0.188575 0.870000
v -0.596398 -0.007495 0.861963
v -0.635732 -0.028739 0.855150
v -0.662015 -0.060532 0.850598
v -0.671244 -0.098035 0.849000
v -0.662015 -0.135538 0.850598
v -0.635732 -0.167331 0.855150
v -0.596398 -0.188575 0.861963
v -0.576788 -0.007495 0.856080
v -0.599498 -0.028739 0.844280
v -0.614672 -0.060532 0.836395
v -0.620000 -0.098035 0.833627
v -0.614672 -0.135538 0.836395
v -0.599498 -0.167331 0.844280
v -0.576788 -0.188575 0.856080
v -0.550000 -0.060532 0.831197
v -0.550000 -0.098035 0.828000
v -0.550000 -0.135538 0.831197
v -0.550000 -0.167331 0.840301
v -0.550000 -0.188575 0.853927
vt 0.750000 0.500000
vt 0.750000 0.562500
vt 0.708333 0.562500
vt 0.708333 0.500000
vt 0.750000 0.937500
vt 0.729167 1.000000
vt 0.708333 0.937500
vt 0.729167 0.000000
vt 0.750000 0.062500
vt 0.708333 0.062500
vt 0.750000 0.437500
vt 0.708333 0.437500
vt 0.750000 0.875000
vt 0.708333 0.875000
vt 0.750000 0.375000
vt 0.708333 0.375000
vt 0.750000 0.812500
vt 0.708333 0.812500
vt 0.750000 0.312500
vt 0.708333 0.312500
vt 0.750000 0.750000
vt 0.708333 0.750000
vt 0.750000 0.250000
vt 0.708333 0.250000
vt 0.750000 0.687500
vt 0.708333 0.687500
vt 0.750000 0.187500
vt 0.708333 0.187500
vt 0.750000 0.625000
vt 0.708333 0.625000
vt 0.750000 0.125000
vt 0.708333 0.125000
vt 0.666667 0.625000
vt 0.666667 0.562500
vt 0.666667 0.125000
vt 0.666667 0.062500
vt 0.666667 0.500000
vt 0.687500 1.000000
vt 0.666667 0.937500
vt 0.687500 0.000000
vt 0.666667 0.437500
vt 0.666667 0.875000
vt 0.666667 0.375000
vt 0.666667 0.812500
vt 0.666667 0.312500
vt 0.666667 0.750000
vt 0.666667 0.250000
vt 0.666667 0.687500
vt 0.666667 0.187500
vt 0.625000 0.375000
vt 0.625000 0.312500
vt 0.625000 0.812500
vt 0.625000 0.750000
vt 0.625000 0.250000
vt 0.625000 0.687500
vt 0.625000 0.187500
vt 0.625000 0.625000
vt 0.625000 0.125000
vt 0.625000 0.562500
vt 0.625000 0.062500
vt 0.625000 0.500000
vt 0.645833 1.000000
vt 0.625000 0.937500
vt 0.645833 0.000000
vt 0.625000 0.437500
vt 0.625000 0.875000
vt 0.583333 0.125000
vt 0.583333 0.062500
vt 0.583333 0.562500
vt 0.583333 0.500000
vt 0.604167 1.000000
vt 0.583333 0.937500
vt 0.604167 0.000000
vt 0.583333 0.437500
vt 0.583333 0.875000
vt 0.583333 0.375000
vt 0.583333 0.812500
vt 0.583333 0.312500
vt 0.583333 0.750000
vt 0.583333 0.250000
vt 0.583333 0.687500
vt 0.583333 0.187500
vt 0.583333 0.625000
vt 0.541667 0.812500
vt 0.541667 0.750000
vt 0.541667 0.312500
vt 0.541667 0.250000
vt 0.541667 0.687500
vt 0.541667 0.187500
vt 0.541667 0.625000
vt 0.541667 0.125000
vt 0.541667 0.562500
vt 0.541667 0.062500
vt 0.541667 0.500000
vt 0.562500 1.000000
vt 0.541667 0.937500
vt 0.562500 0.000000
vt 0.541667 0.437500
vt 0.541667 0.875000
vt 0.541667 0.375000
vt 0.500000 0.562500
vt 0.500000 0.500000
vt 0.520833 1.000000
vt 0.500000 0.937500
vt 0.520833 0.000000
vt 0.500000 0.062500
vt 0.500000 0.437500
vt 0.500000 0.875000
vt 0.500000 0.375000
vt 0.500000 0.812500
vt 0.500000 0.312500
vt 0.500000 0.750000
vt 0.500000 0.250000
vt 0.500000 0.687500
vt 0.500000 0.187500
vt 0.500000 0.625000
vt 0.500000 0.125000
vt 0.458333 0.312500
vt 0.458333 0.250000
vt 0.458333 0.750000
vt 0.458333 0.687500
vt 0.458333 0.187500
vt 0.458333 0.625000
vt 0.458333 0.125000
vt 0.458333 0.562500
vt 0.458333 0.062500
vt 0.458333 0.500000
vt 0.479167 1.000000
vt 0.458333 0.937500
vt 0.479167 0.000000
vt 0.458333 0.437500
vt 0.458333 0.875000
vt 0.458333 0.375000
vt 0.458333 0.812500
vt 0.437500 0.000000
vt 0.416667 0.062500
vt 0.416667 0.500000
vt 0.416667 0.437500
vt 0.416667 0.937500
vt 0.416667 0.875000
vt 0.416667 0.375000
vt 0.416667 0.812500
vt 0.416667 0.312500
vt 0.416667 0.750000
vt 0.416667 0.250000
vt 0.416667 0.687500
vt 0.416667 0.187500
vt 0.416667 0.625000
vt 0.416667 0.125000
vt 0.416667 0.562500
vt 0.437500 1.000000
vt 0.375000 0.250000
vt 0.375000 0.187500
vt 0.375000 0.687500
vt 0.375000 0.625000
vt 0.375000 0.125000
vt 0.375000 0.562500
vt 0.375000 0.062500
vt 0.375000 0.500000
vt 0.395833 1.000000
vt 0.375000 0.937500
vt 0.395833 0.000000
vt 0.375000 0.437500
vt 0.375000 0.875000
vt 0.375000 0.375000
vt 0.375000 0.812500
vt 0.375000 0.312500
vt 0.375000 0.750000
vt 0.333333 0.937500
vt 0.333333 0.875000
vt 0.333333 0.437500
vt 0.333333 0.375000
vt 0.333333 0.812500
vt 0.333333 0.312500
vt 0.333333 0.750000
vt 0.333333 0.250000
vt 0.333333 0.687500
vt 0.333333 0.187500
vt 0.333333 0.625000
vt 0.333333 0.125000
vt 0.333333 0.562500
vt 0.333333 0.062500
vt 0.333333 0.500000
vt 0.354167 1.000000
vt 0.354167 0.000000
vt 0.291667 0.687500
vt 0.291667 0.625000
vt 0.291667 0.187500
vt 0.291667 0.125000
vt 0.291667 0.562500
vt 0.291667 0.062500
vt 0.291667 0.500000
vt 0.312500 1.000000
vt 0.291667 0.937500
vt 0.312500 0.000000
vt 0.291667 0.437500
vt 0.291667 0.875000
vt 0.291667 0.375000
vt 0.291667 0.812500
vt 0.291667 0.312500
vt 0.291667 0.750000
vt 0.291667 0.250000
vt 0.250000 0.437500
vt 0.250000 0.375000
vt 0.250000 0.875000
vt 0.250000 0.812500
vt 0.250000 0.312500
vt 0.250000 0.750000
vt 0.250000 0.250000
vt 0.250000 0.687500
vt 0.250000 0.187500
vt 0.250000 0.625000
vt 0.250000 0.125000
vt 0.250000 0.562500
vt 0.250000 0.062500
vt 0.250000 0.500000
vt 0.270833 1.000000
vt 0.250000 0.937500
vt 0.270833 0.000000
vt 0.208333 0.187500
vt 0.208333 0.125000
vt 0.208333 0.625000
vt 0.208333 0.562500
vt 0.208333 0.062500
vt 0.208333 0.500000
vt 0.229167 1.000000
vt 0.208333 0.937500
vt 0.229167 0.000000
vt 0.208333 0.437500
vt 0.208333 0.875000
vt 0.208333 0.375000
vt 0.208333 0.812500
vt 0.208333 0.312500
vt 0.208333 0.750000
vt 0.208333 0.250000
vt 0.208333 0.687500
vt 0.166667 0.875000
vt 0.166667 0.812500
vt 0.166667 0.375000
vt 0.166667 0.312500
vt 0.166667 0.750000
vt 0.166667 0.250000
vt 0.166667 0.687500
vt 0.166667 0.187500
vt 0.166667 0.625000
vt 0.166667 0.125000
vt 0.166667 0.562500
vt 0.166667 0.062500
vt 0.166667 0.500000
vt 0.187500 1.000000
vt 0.166667 0.937500
vt 0.187500 0.000000
vt 0.166667 0.437500
vt 0.125000 0.625000
vt 0.125000 0.562500
vt 0.125000 0.125000
vt 0.125000 0.062500
vt 0.125000 0.500000
vt 0.145833 1.000000
vt 0.125000 0.937500
vt 0.145833 0.000000
vt 0.125000 0.437500
vt 0.125000 0.875000
vt 0.125000 0.375000
vt 0.125000 0.812500
vt 0.125000 0.312500
vt 0.125000 0.750000
vt 0.125000 0.250000
vt 0.125000 0.687500
vt 0.125000 0.187500
vt 0.083333 0.375000
vt 0.083333 0.312500
vt 0.083333 0.812500
vt 0.083333 0.750000
vt 0.083333 0.250000
vt 0.083333 0.687500
vt 0.083333 0.187500
vt 0.083333 0.625000
vt 0.083333 0.125000
vt 0.083333 0.562500
vt 0.083333 0.062500
vt 0.083333 0.500000
vt 0.104167 1.000000
vt 0.083333 0.937500
vt 0.104167 0.000000
vt 0.083333 0.437500
vt 0.083333 0.875000
vt 0.041667 0.125000
vt 0.041667 0.062500
vt 0.041667 0.562500
vt 0.041667 0.500000
vt 0.062500 1.000000
vt 0.041667 0.937500
vt 0.062500 0.000000
vt 0.041667 0.437500
vt 0.041667 0.875000
vt 0.041667 0.375000
vt 0.041667 0.812500
vt 0.041667 0.312500
vt 0.041667 0.750000
vt 0.041667 0.250000
vt 0.041667 0.687500
vt 0.041667 0.187500
vt 0.041667 0.625000
vt 0.000000 0.312500
vt 0.000000 0.250000
vt 0.000000 0.750000
vt 0.000000 0.687500
vt 0.000000 0.187500
vt 0.000000 0.625000
vt 0.000000 0.125000
vt 0.000000 0.562500
vt 0.000000 0.062500
vt 0.000000 0.500000
vt 0.020833 1.000000
vt 0.000000 0.937500
vt 0.020833 0.000000
vt 0.000000 0.437500
vt 0.000000 0.875000
vt 0.000000 0.375000
vt 0.000000 0.812500
vt 1.000000 0.937500
vt 0.979167 1.000000
vt 0.958333 0.937500
vt 0.979167 0.000000
vt 1.000000 0.062500
vt 0.958333 0.062500
vt 1.000000 0.437500
vt 1.000000 0.500000
vt 0.958333 0.500000
vt 0.958333 0.437500
vt 1.000000 0.875000
vt 0.958333 0.875000
vt 1.000000 0.375000
vt 0.958333 0.375000
vt 1.000000 0.812500
vt 0.958333 0.812500
vt 1.000000 0.312500
vt 0.958333 0.312500
vt 1.000000 0.750000
vt 0.958333 0.750000
vt 1.000000 0.250000
vt 0.958333 0.250000
vt 1.000000 0.687500
vt 0.958333 0.687500
vt 1.000000 0.187500
vt 0.958333 0.187500
vt 1.000000 0.625000
vt 0.958333 0.625000
vt 1.000000 0.125000
vt 0.958333 0.125000
vt 1.000000 0.562500
vt 0.958333 0.562500
vt 0.916667 0.750000
vt 0.916667 0.687500
vt 0.916667 0.250000
vt 0.916667 0.187500
vt 0.916667 0.625000
vt 0.916667 0.125000
vt 0.916667 0.562500
vt 0.916667 0.062500
vt 0.916667 0.500000
vt 0.937500 1.000000
vt 0.916667 0.937500
vt 0.937500 0.000000
vt 0.916667 0.437500
vt 0.916667 0.875000
vt 0.916667 0.375000
vt 0.916667 0.812500
vt 0.916667 0.312500
vt 0.875000 0.500000
vt 0.875000 0.437500
vt 0.875000 0.937500
vt 0.875000 0.875000
vt 0.875000 0.375000
vt 0.875000 0.812500
vt 0.875000 0.312500
vt 0.875000 0.750000
vt 0.875000 0.250000
vt 0.875000 0.687500
vt 0.875000 0.187500
vt 0.875000 0.625000
vt 0.875000 0.125000
vt 0.875000 0.562500
vt 0.875000 0.062500
vt 0.895833 1.000000
vt 0.895833 0.000000
vt 0.833333 0.250000
vt 0.833333 0.187500
vt 0.833333 0.687500
vt 0.833333 0.625000
vt 0.833333 0.125000
vt 0.833333 0.562500
vt 0.833333 0.062500
vt 0.833333 0.500000
vt 0.854167 1.000000
vt 0.833333 0.937500
vt 0.854167 0.000000
vt 0.833333 0.437500
vt 0.833333 0.875000
vt 0.833333 0.375000
vt 0.833333 0.812500
vt 0.833333 0.312500
vt 0.833333 0.750000
vt 0.791667 0.937500
vt 0.791667 0.875000
vt 0.791667 0.437500
vt 0.791667 0.375000
vt 0.791667 0.812500
vt 0.791667 0.312500
vt 0.791667 0.750000
vt 0.791667 0.250000
vt 0.791667 0.687500
vt 0.791667 0.187500
vt 0.791667 0.625000
vt 0.791667 0.125000
vt 0.791667 0.562500
vt 0.791667 0.062500
vt 0.791667 0.500000
vt 0.812500 1.000000
vt 0.812500 0.000000
vt 0.770833 1.000000
vt 0.770833 0.000000
vt 0.250000 0.490000
vt 0.250000 0.250000
vt 0.296822 0.485388
vt 0.341844 0.471731
vt 0.383337 0.449553
vt 0.419706 0.419706
vt 0.449553 0.383337
vt 0.471731 0.341844
vt 0.485388 0.296822
vt 0.490000 0.250000
vt 0.485388 0.203178
vt 0.471731 0.158156
vt 0.449553 0.116663
vt 0.419706 0.080294
vt 0.383337 0.050447
vt 0.341844 0.028269
vt 0.296822 0.014612
vt 0.250000 0.010000
vt 0.203178 0.014612
vt 0.158156 0.028269
vt 0.116663 0.050447
vt 0.080294 0.080294
vt 0.050447 0.116663
vt 0.028269 0.158156
vt 0.014612 0.203178
vt 0.010000 0.250000
vt 0.014612 0.296822
vt 0.028269 0.341844
vt 0.050447 0.383337
vt 0.080294 0.419706
vt 0.116663 0.449553
vt 0.158156 0.471731
vt 0.750000 0.490000
vt 0.796822 0.485388
vt 0.841844 0.471731
vt 0.883337 0.449553
vt 0.919706 0.419706
vt 0.949553 0.383337
vt 0.971731 0.341844
vt 0.985388 0.296822
vt 0.990000 0.250000
vt 0.985388 0.203178
vt 0.971731 0.158156
vt 0.949553 0.116663
vt 0.919706 0.080294
vt 0.883337 0.050447
vt 0.841844 0.028269
vt 0.796822 0.014612
vt 0.750000 0.010000
vt 0.703178 0.014612
vt 0.658156 0.028269
vt 0.616663 0.050447
vt 0.580294 0.080294
vt 0.550447 0.116663
vt 0.528269 0.158156
vt 0.514612 0.203178
vt 0.510000 0.250000
vt 0.514612 0.296822
vt 0.528269 0.341844
vt 0.550447 0.383337
vt 0.580294 0.419706
vt 0.616663 0.449553
vt 0.658156 0.471731
vt 0.703178 0.485388
vt 0.203178 0.485388
vt 0.250000 0.490000
vt 0.250000 0.250000
vt 0.296822 0.485388
vt 0.341844 0.471731
vt 0.383337 0.449553
vt 0.419706 0.419706
vt 0.449553 0.383337
vt 0.471731 0.341844
vt 0.485388 0.296822
vt 0.490000 0.250000
vt 0.485388 0.203178
vt 0.471731 0.158156
vt 0.449553 0.116663
vt 0.419706 0.080294
vt 0.383337 0.050447
vt 0.341844 0.028269
vt 0.296822 0.014612
vt 0.250000 0.010000
vt 0.203178 0.014612
vt 0.158156 0.028269
vt 0.116663 0.050447
vt 0.080294 0.080294
vt 0.050447 0.116663
vt 0.028269 0.158156
vt 0.014612 0.203178
vt 0.010000 0.250000
vt 0.014612 0.296822
vt 0.028269 0.341844
vt 0.050447 0.383337
vt 0.080294 0.419706
vt 0.116663 0.449553
vt 0.158156 0.471731
vt 0.750000 0.490000
vt 0.796822 0.485388
vt 0.841844 0.471731
vt 0.883337 0.449553
vt 0.919706 0.419706
vt 0.949553 0.383337
vt 0.971731 0.341844
vt 0.985388 0.296822
vt 0.990000 0.250000
vt 0.985388 0.203178
vt 0.971731 0.158156
vt 0.949553 0.116663
vt 0.919706 0.080294
vt 0.883337 0.050447
vt 0.841844 0.028269
vt 0.796822 0.014612
vt 0.750000 0.010000
vt 0.703178 0.014612
vt 0.658156 0.028269
vt 0.616663 0.050447
vt 0.580294 0.080294
vt 0.550447 0.116663
vt 0.528269 0.158156
vt 0.514612 0.203178
vt 0.510000 0.250000
vt 0.514612 0.296822
vt 0.528269 0.341844
vt 0.550447 0.383337
vt 0.580294 0.419706
vt 0.616663 0.449553
vt 0.658156 0.471731
vt 0.703178 0.485388
vt 0.203178 0.485388
vt 0.750000 0.625000
vt 0.750000 0.750000
vt 0.666667 0.750000
vt 0.666667 0.625000
vt 0.750000 0.875000
vt 0.708333 1.000000
vt 0.666667 0.875000
vt 0.708333 0.000000
vt 0.750000 0.125000
vt 0.666667 0.125000
vt 0.750000 0.250000
vt 0.750000 0.375000
vt 0.666667 0.375000
vt 0.666667 0.250000
vt 0.750000 0.500000
vt 0.666667 0.500000
vt 0.583333 0.375000
vt 0.583333 0.250000
vt 0.583333 0.625000
vt 0.583333 0.500000
vt 0.583333 0.875000
vt 0.583333 0.750000
vt 0.583333 0.125000
vt 0.625000 1.000000
vt 0.625000 0.000000
vt 0.500000 0.250000
vt 0.500000 0.125000
vt 0.500000 0.500000
vt 0.500000 0.375000
vt 0.500000 0.750000
vt 0.500000 0.625000
vt 0.541667 1.000000
vt 0.500000 0.875000
vt 0.541667 0.000000
vt 0.416667 0.500000
vt 0.416667 0.375000
vt 0.416667 0.750000
vt 0.416667 0.625000
vt 0.458333 1.000000
vt 0.416667 0.875000
vt 0.458333 0.000000
vt 0.416667 0.125000
vt 0.416667 0.250000
vt 0.375000 0.000000
vt 0.333333 0.125000
vt 0.333333 0.375000
vt 0.333333 0.250000
vt 0.333333 0.625000
vt 0.333333 0.500000
vt 0.333333 0.875000
vt 0.333333 0.750000
vt 0.375000 1.000000
vt 0.250000 0.625000
vt 0.250000 0.500000
vt 0.250000 0.875000
vt 0.250000 0.750000
vt 0.250000 0.250000
vt 0.250000 0.125000
vt 0.250000 0.375000
vt 0.291667 1.000000
vt 0.291667 0.000000
vt 0.166667 0.250000
vt 0.166667 0.125000
vt 0.166667 0.500000
vt 0.166667 0.375000
vt 0.166667 0.750000
vt 0.166667 0.625000
vt 0.208333 1.000000
vt 0.166667 0.875000
vt 0.208333 0.000000
vt 0.083333 0.750000
vt 0.083333 0.625000
vt 0.125000 1.000000
vt 0.083333 0.875000
vt 0.125000 0.000000
vt 0.083333 0.125000
vt 0.083333 0.375000
vt 0.083333 0.250000
vt 0.083333 0.500000
vt 0.041667 0.000000
vt 0.000000 0.125000
vt 0.000000 0.375000
vt 0.000000 0.250000
vt 0.000000 0.625000
vt 0.000000 0.500000
vt 0.000000 0.875000
vt 0.000000 0.750000
vt 0.041667 1.000000
vt 1.000000 0.750000
vt 1.000000 0.875000
vt 0.916667 0.875000
vt 0.916667 0.750000
vt 1.000000 0.125000
vt 1.000000 0.250000
vt 0.916667 0.250000
vt 0.916667 0.125000
vt 1.000000 0.375000
vt 1.000000 0.500000
vt 0.916667 0.500000
vt 0.916667 0.375000
vt 1.000000 0.625000
vt 0.916667 0.625000
vt 0.958333 1.000000
vt 0.958333 0.000000
vt 0.833333 0.250000
vt 0.833333 0.125000
vt 0.833333 0.500000
vt 0.833333 0.375000
vt 0.833333 0.750000
vt 0.833333 0.625000
vt 0.875000 1.000000
vt 0.833333 0.875000
vt 0.875000 0.000000
vt 0.791667 1.000000
vt 0.791667 0.000000
vt 0.708333 0.000000
vt 0.750000 0.125000
vt 0.666667 0.125000
vt 0.750000 0.250000
vt 0.750000 0.375000
vt 0.666667 0.375000
vt 0.666667 0.250000
vt 0.750000 0.500000
vt 0.750000 0.625000
vt 0.666667 0.625000
vt 0.666667 0.500000
vt 0.750000 0.750000
vt 0.750000 0.875000
vt 0.666667 0.875000
vt 0.666667 0.750000
vt 0.708333 1.000000
vt 0.583333 0.250000
vt 0.583333 0.125000
vt 0.583333 0.500000
vt 0.583333 0.375000
vt 0.583333 0.750000
vt 0.583333 0.625000
vt 0.625000 1.000000
vt 0.583333 0.875000
vt 0.625000 0.000000
vt 0.500000 0.500000
vt 0.500000 0.375000
vt 0.500000 0.750000
vt 0.500000 0.625000
vt 0.541667 1.000000
vt 0.500000 0.875000
vt 0.541667 0.000000
vt 0.500000 0.125000
vt 0.500000 0.250000
vt 0.458333 0.000000
vt 0.416667 0.125000
vt 0.416667 0.375000
vt 0.416667 0.250000
vt 0.416667 0.625000
vt 0.416667 0.500000
vt 0.416667 0.875000
vt 0.416667 0.750000
vt 0.458333 1.000000
vt 0.333333 0.625000
vt 0.333333 0.500000
vt 0.333333 0.875000
vt 0.333333 0.750000
vt 0.333333 0.250000
vt 0.333333 0.125000
vt 0.333333 0.375000
vt 0.375000 1.000000
vt 0.375000 0.000000
vt 0.250000 0.250000
vt 0.250000 0.125000
vt 0.250000 0.500000
vt 0.250000 0.375000
vt 0.250000 0.750000
vt 0.250000 0.625000
vt 0.291667 1.000000
vt 0.250000 0.875000
vt 0.291667 0.000000
vt 0.166667 0.750000
vt 0.166667 0.625000
vt 0.208333 1.000000
vt 0.166667 0.875000
vt 0.208333 0.000000
vt 0.166667 0.125000
vt 0.166667 0.375000
vt 0.166667 0.250000
vt 0.166667 0.500000
vt 0.125000 0.000000
vt 0.083333 0.125000
vt 0.083333 0.375000
vt 0.083333 0.250000
vt 0.083333 0.625000
vt 0.083333 0.500000
vt 0.083333 0.875000
vt 0.083333 0.750000
vt 0.125000 1.000000
vt 0.000000 0.875000
vt 0.000000 0.750000
vt 0.000000 0.250000
vt 0.000000 0.125000
vt 0.000000 0.500000
vt 0.000000 0.375000
vt 0.000000 0.625000
vt 0.041667 1.000000
vt 0.041667 0.000000
vt 1.000000 0.125000
vt 1.000000 0.250000
vt 0.916667 0.250000
vt 0.916667 0.125000
vt 1.000000 0.375000
vt 1.000000 0.500000
vt 0.916667 0.500000
vt 0.916667 0.375000
vt 1.000000 0.625000
vt 1.000000 0.750000
vt 0.916667 0.750000
vt 0.916667 0.625000
vt 1.000000 0.875000
vt 0.958333 1.000000
vt 0.916667 0.875000
vt 0.958333 0.000000
vt 0.875000 1.000000
vt 0.833333 0.875000
vt 0.875000 0.000000
vt 0.833333 0.125000
vt 0.833333 0.375000
vt 0.833333 0.250000
vt 0.833333 0.625000
vt 0.833333 0.500000
vt 0.833333 0.750000
vt 0.791667 1.000000
vt 0.791667 0.000000
vt 0.750000 0.750000
vt 0.750000 0.875000
vt 0.666667 0.875000
vt 0.666667 0.750000
vt 0.750000 0.125000
vt 0.750000 0.250000
vt 0.666667 0.250000
vt 0.666667 0.125000
vt 0.750000 0.375000
vt 0.750000 0.500000
vt 0.666667 0.500000
vt 0.666667 0.375000
vt 0.750000 0.625000
vt 0.666667 0.625000
vt 0.708333 1.000000
vt 0.708333 0.000000
vt 0.583333 0.500000
vt 0.583333 0.375000
vt 0.583333 0.750000
vt 0.583333 0.625000
vt 0.625000 1.000000
vt 0.583333 0.875000
vt 0.625000 0.000000
vt 0.583333 0.125000
vt 0.583333 0.250000
vt 0.541667 0.000000
vt 0.500000 0.125000
vt 0.500000 0.375000
vt 0.500000 0.250000
vt 0.500000 0.625000
vt 0.500000 0.500000
vt 0.500000 0.875000
vt 0.500000 0.750000
vt 0.541667 1.000000
vt 0.416667 0.625000
vt 0.416667 0.500000
vt 0.416667 0.875000
vt 0.416667 0.750000
vt 0.416667 0.250000
vt 0.416667 0.125000
vt 0.416667 0.375000
vt 0.458333 1.000000
vt 0.458333 0.000000
vt 0.333333 0.250000
vt 0.333333 0.125000
vt 0.333333 0.500000
vt 0.333333 0.375000
vt 0.333333 0.750000
vt 0.333333 0.625000
vt 0.375000 1.000000
vt 0.333333 0.875000
vt 0.375000 0.000000
vt 0.250000 0.750000
vt 0.250000 0.625000
vt 0.291667 1.000000
vt 0.250000 0.875000
vt 0.291667 0.000000
vt 0.250000 0.125000
vt 0.250000 0.375000
vt 0.250000 0.250000
vt 0.250000 0.500000
vt 0.208333 0.000000
vt 0.166667 0.125000
vt 0.166667 0.375000
vt 0.166667 0.250000
vt 0.166667 0.625000
vt 0.166667 0.500000
vt 0.166667 0.875000
vt 0.166667 0.750000
vt 0.208333 1.000000
vt 0.083333 0.875000
vt 0.083333 0.750000
vt 0.083333 0.250000
vt 0.083333 0.125000
vt 0.083333 0.500000
vt 0.083333 0.375000
vt 0.083333 0.625000
vt 0.125000 1.000000
vt 0.125000 0.000000
vt 0.000000 0.250000
vt 0.000000 0.125000
vt 0.000000 0.500000
vt 0.000000 0.375000
vt 0.000000 0.750000
vt 0.000000 0.625000
vt 0.041667 1.000000
vt 0.000000 0.875000
vt 0.041667 0.000000
vt 1.000000 0.875000
vt 0.958333 1.000000
vt 0.916667 0.875000
vt 0.958333 0.000000
vt 1.000000 0.125000
vt 0.916667 0.125000
vt 1.000000 0.250000
vt 1.000000 0.375000
vt 0.916667 0.375000
vt 0.916667 0.250000
vt 1.000000 0.500000
vt 1.000000 0.625000
vt 0.916667 0.625000
vt 0.916667 0.500000
vt 1.000000 0.750000
vt 0.916667 0.750000
vt 0.833333 0.375000
vt 0.833333 0.250000
vt 0.833333 0.625000
vt 0.833333 0.500000
vt 0.833333 0.875000
vt 0.833333 0.750000
vt 0.833333 0.125000
vt 0.875000 1.000000
vt 0.875000 0.000000
vt 0.791667 1.000000
vt 0.791667 0.000000
vt 0.750000 0.125000
vt 0.750000 0.250000
vt 0.666667 0.250000
vt 0.666667 0.125000
vt 0.750000 0.375000
vt 0.750000 0.500000
vt 0.666667 0.500000
vt 0.666667 0.375000
vt 0.750000 0.625000
vt 0.750000 0.750000
vt 0.666667 0.750000
vt 0.666667 0.625000
vt 0.750000 0.875000
vt 0.708333 1.000000
vt 0.666667 0.875000
vt 0.708333 0.000000
vt 0.625000 0.000000
vt 0.583333 0.125000
vt 0.583333 0.375000
vt 0.583333 0.250000
vt 0.583333 0.625000
vt 0.583333 0.500000
vt 0.583333 0.875000
vt 0.583333 0.750000
vt 0.625000 1.000000
vt 0.500000 0.625000
vt 0.500000 0.500000
vt 0.500000 0.875000
vt 0.500000 0.750000
vt 0.500000 0.250000
vt 0.500000 0.125000
vt 0.500000 0.375000
vt 0.541667 1.000000
vt 0.541667 0.000000
vt 0.416667 0.250000
vt 0.416667 0.125000
vt 0.416667 0.500000
vt 0.416667 0.375000
vt 0.416667 0.750000
vt 0.416667 0.625000
vt 0.458333 1.000000
vt 0.416667 0.875000
vt 0.458333 0.000000
vt 0.333333 0.750000
vt 0.333333 0.625000
vt 0.375000 1.000000
vt 0.333333 0.875000
vt 0.375000 0.000000
vt 0.333333 0.125000
vt 0.333333 0.375000
vt 0.333333 0.250000
vt 0.333333 0.500000
vt 0.291667 0.000000
vt 0.250000 0.125000
vt 0.250000 0.375000
vt 0.250000 0.250000
vt 0.250000 0.625000
vt 0.250000 0.500000
vt 0.250000 0.875000
vt 0.250000 0.750000
vt 0.291667 1.000000
vt 0.166667 0.875000
vt 0.166667 0.750000
vt 0.166667 0.250000
vt 0.166667 0.125000
vt 0.166667 0.500000
vt 0.166667 0.375000
vt 0.166667 0.625000
vt 0.208333 1.000000
vt 0.208333 0.000000
vt 0.083333 0.250000
vt 0.083333 0.125000
vt 0.083333 0.500000
vt 0.083333 0.375000
vt 0.083333 0.750000
vt 0.083333 0.625000
vt 0.125000 1.000000
vt 0.083333 0.875000
vt 0.125000 0.000000
vt 0.041667 1.000000
vt 0.000000 0.875000
vt 0.041667 0.000000
vt 0.000000 0.125000
vt 0.000000 0.375000
vt 0.000000 0.250000
vt 0.000000 0.625000
vt 0.000000 0.500000
vt 0.000000 0.750000
vt 1.000000 0.250000
vt 1.000000 0.375000
vt 0.916667 0.375000
vt 0.916667 0.250000
vt 1.000000 0.500000
vt 1.000000 0.625000
vt 0.916667 0.625000
vt 0.916667 0.500000
vt 1.000000 0.750000
vt 1.000000 0.875000
vt 0.916667 0.875000
vt 0.916667 0.750000
vt 1.000000 0.125000
vt 0.916667 0.125000
vt 0.958333 1.000000
vt 0.958333 0.000000
vt 0.833333 0.250000
vt 0.833333 0.125000
vt 0.833333 0.500000
vt 0.833333 0.375000
vt 0.833333 0.750000
vt 0.833333 0.625000
vt 0.875000 1.000000
vt 0.833333 0.875000
vt 0.875000 0.000000
vt 0.791667 1.000000
vt 0.791667 0.000000
vn -0.0000 -0.0000 -1.0000
vn -0.0000 0.1935 -0.9811
vn 0.2539 0.1935 -0.9477
vn 0.2588 0.0000 -0.9659
vn -0.0000 0.9792 -0.2029
vn -0.0000 1.0000 0.0000
vn 0.0525 0.9792 -0.1960
vn -0.0000 -1.0000 0.0000
vn -0.0000 -0.9792 -0.2029
vn 0.0525 -0.9792 -0.1960
vn -0.0000 -0.1935 -0.9811
vn 0.2539 -0.1935 -0.9477
vn -0.0000 0.9210 -0.3896
vn 0.1008 0.9210 -0.3763
vn -0.0000 -0.3798 -0.9251
vn 0.2394 -0.3798 -0.8935
vn -0.0000 0.8277 -0.5612
vn 0.1452 0.8277 -0.5420
vn -0.0000 -0.5518 -0.8340
vn 0.2158 -0.5518 -0.8055
vn -0.0000 0.7031 -0.7111
vn 0.1841 0.7031 -0.6869
vn -0.0000 -0.7031 -0.7111
vn 0.1841 -0.7031 -0.6869
vn -0.0000 0.5518 -0.8340
vn 0.2158 0.5518 -0.8055
vn -0.0000 -0.8277 -0.5612
vn 0.1452 -0.8277 -0.5420
vn -0.0000 0.3798 -0.9251
vn 0.2394 0.3798 -0.8935
vn -0.0000 -0.9210 -0.3896
vn 0.1008 -0.9210 -0.3763
vn 0.4625 0.3798 -0.8011
vn 0.4905 0.1935 -0.8496
vn 0.1948 -0.9210 -0.3374
vn 0.1015 -0.9792 -0.1757
vn 0.5000 -0.0000 -0.8660
vn 0.1015 0.9792 -0.1757
vn 0.4905 -0.1935 -0.8496
vn 0.1948 0.9210 -0.3374
vn 0.4625 -0.3798 -0.8011
vn 0.2806 0.8277 -0.4860
vn 0.4170 -0.5518 -0.7222
vn 0.3556 0.7031 -0.6159
vn 0.3556 -0.7031 -0.6159
vn 0.4170 0.5518 -0.7222
vn 0.2806 -0.8277 -0.4860
vn 0.6541 -0.3798 -0.6541
vn 0.5897 -0.5518 -0.5897
vn 0.3968 0.8277 -0.3968
vn 0.5029 0.7031 -0.5029
vn 0.5029 -0.7031 -0.5029
vn 0.5897 0.5518 -0.5897
vn 0.3968 -0.8277 -0.3968
vn 0.6541 0.3798 -0.6541
vn 0.2755 -0.9210 -0.2755
vn 0.6937 0.1935 -0.6937
vn 0.1435 -0.9792 -0.1435
vn 0.7071 -0.0000 -0.7071
vn 0.1435 0.9792 -0.1435
vn 0.6937 -0.1935 -0.6937
vn 0.2755 0.9210 -0.2755
vn 0.3374 -0.9210 -0.1948
vn 0.1757 -0.9792 -0.1015
vn 0.8496 0.1935 -0.4905
vn 0.8660 0.0000 -0.5000
vn 0.1757 0.9792 -0.1015
vn 0.8496 -0.1935 -0.4905
vn 0.3374 0.9210 -0.1948
vn 0.8011 -0.3798 -0.4625
vn 0.4860 0.8277 -0.2806
vn 0.7222 -0.5518 -0.4170
vn 0.6159 0.7031 -0.3556
vn 0.6159 -0.7031 -0.3556
vn 0.7222 0.5518 -0.4170
vn 0.4860 -0.8277 -0.2806
vn 0.8011 0.3798 -0.4625
vn 0.5420 0.8277 -0.1452
vn 0.6869 0.7031 -0.1841
vn 0.8055 -0.5518 -0.2158
vn 0.6869 -0.7031 -0.1841
vn 0.8055 0.5518 -0.2158
vn 0.5420 -0.8277 -0.1452
vn 0.8935 0.3798 -0.2394
vn 0.3763 -0.9210 -0.1008
vn 0.9477 0.1935 -0.2539
vn 0.1960 -0.9792 -0.0525
vn 0.9659 0.0000 -0.2588
vn 0.1960 0.9792 -0.0525
vn 0.9477 -0.1935 -0.2539
vn 0.3763 0.9210 -0.1008
vn 0.8935 -0.3798 -0.2394
vn 0.9811 0.1935 0.0000
vn 1.0000 -0.0000 0.0000
vn 0.2029 0.9792 0.0000
vn 0.2029 -0.9792 -0.0000
vn 0.9811 -0.1935 0.0000
vn 0.3896 0.9210 0.0000
vn 0.9251 -0.3798 0.0000
vn 0.5612 0.8277 0.0000
vn 0.8340 -0.5518 0.0000
vn 0.7111 0.7031 0.0000
vn 0.7111 -0.7031 0.0000
vn 0.8340 0.5518 0.0000
vn 0.5612 -0.8277 0.0000
vn 0.9251 0.3798 0.0000
vn 0.3896 -0.9210 -0.0000
vn 0.8055 -0.5518 0.2158
vn 0.6869 -0.7031 0.1841
vn 0.6869 0.7031 0.1841
vn 0.8055 0.5518 0.2158
vn 0.5420 -0.8277 0.1452
vn 0.8935 0.3798 0.2394
vn 0.3763 -0.9210 0.1008
vn 0.9477 0.1935 0.2539
vn 0.1960 -0.9792 0.0525
vn 0.9659 -0.0000 0.2588
vn 0.1960 0.9792 0.0525
vn 0.9477 -0.1935 0.2539
vn 0.3763 0.9210 0.1008
vn 0.8935 -0.3798 0.2394
vn 0.5420 0.8277 0.1452
vn 0.1757 -0.9792 0.1015
vn 0.8660 0.0000 0.5000
vn 0.8496 -0.1935 0.4905
vn 0.1757 0.9792 0.1015
vn 0.3374 0.9210 0.1948
vn 0.8011 -0.3798 0.4625
vn 0.4860 0.8277 0.2806
vn 0.7222 -0.5518 0.4170
vn 0.6159 0.7031 0.3556
vn 0.6159 -0.7031 0.3556
vn 0.7222 0.5518 0.4170
vn 0.4860 -0.8277 0.2806
vn 0.8011 0.3798 0.4625
vn 0.3374 -0.9210 0.1948
vn 0.8496 0.1935 0.4905
vn 0.5029 -0.7031 0.5029
vn 0.3968 -0.8277 0.3968
vn 0.5897 0.5518 0.5897
vn 0.6541 0.3798 0.6541
vn 0.2755 -0.9210 0.2755
vn 0.6937 0.1935 0.6937
vn 0.1435 -0.9792 0.1435
vn 0.7071 0.0000 0.7071
vn 0.1435 0.9792 0.1435
vn 0.6937 -0.1935 0.6937
vn 0.2755 0.9210 0.2755
vn 0.6541 -0.3798 0.6541
vn 0.3968 0.8277 0.3968
vn 0.5897 -0.5518 0.5897
vn 0.5029 0.7031 0.5029
vn 0.1015 0.9792 0.1757
vn 0.1948 0.9210 0.3374
vn 0.4905 -0.1935 0.8496
vn 0.4625 -0.3798 0.8011
vn 0.2806 0.8277 0.4860
vn 0.4170 -0.5518 0.7222
vn 0.3556 0.7031 0.6159
vn 0.3556 -0.7031 0.6159
vn 0.4170 0.5518 0.7222
vn 0.2806 -0.8277 0.4860
vn 0.4625 0.3798 0.8011
vn 0.1948 -0.9210 0.3374
vn 0.4905 0.1935 0.8496
vn 0.1015 -0.9792 0.1757
vn 0.5000 0.0000 0.8660
vn 0.2158 0.5518 0.8055
vn 0.2394 0.3798 0.8935
vn 0.1452 -0.8277 0.5420
vn 0.1008 -0.9210 0.3763
vn 0.2539 0.1935 0.9477
vn 0.0525 -0.9792 0.1960
vn 0.2588 0.0000 0.9659
vn 0.0525 0.9792 0.1960
vn 0.2539 -0.1935 0.9477
vn 0.1008 0.9210 0.3763
vn 0.2394 -0.3798 0.8935
vn 0.1452 0.8277 0.5420
vn 0.2158 -0.5518 0.8055
vn 0.1841 0.7031 0.6869
vn 0.1841 -0.7031 0.6869
vn 0.0000 -0.1935 0.9811
vn -0.0000 -0.3798 0.9251
vn -0.0000 0.9210 0.3896
vn -0.0000 0.8277 0.5612
vn -0.0000 -0.5518 0.8340
vn -0.0000 0.7031 0.7111
vn -0.0000 -0.7031 0.7111
vn -0.0000 0.5518 0.8340
vn -0.0000 -0.8277 0.5612
vn -0.0000 0.3798 0.9251
vn -0.0000 -0.9210 0.3896
vn 0.0000 0.1935 0.9811
vn 0.0000 -0.9792 0.2029
vn -0.0000 0.0000 1.0000
vn 0.0000 0.9792 0.2029
vn -0.1452 -0.8277 0.5420
vn -0.1008 -0.9210 0.3763
vn -0.2394 0.3798 0.8935
vn -0.2539 0.1935 0.9477
vn -0.0525 -0.9792 0.1960
vn -0.2588 0.0000 0.9659
vn -0.0525 0.9792 0.1960
vn -0.2539 -0.1935 0.9477
vn -0.1008 0.9210 0.3763
vn -0.2394 -0.3798 0.8935
vn -0.1452 0.8277 0.5420
vn -0.2158 -0.5518 0.8055
vn -0.1841 0.7031 0.6869
vn -0.1841 -0.7031 0.6869
vn -0.2158 0.5518 0.8055
vn -0.1948 0.9210 0.3374
vn -0.2806 0.8277 0.4860
vn -0.4625 -0.3798 0.8011
vn -0.4170 -0.5518 0.7222
vn -0.3556 0.7031 0.6159
vn -0.3556 -0.7031 0.6159
vn -0.4170 0.5518 0.7222
vn -0.2806 -0.8277 0.4860
vn -0.4625 0.3798 0.8011
vn -0.1948 -0.9210 0.3374
vn -0.4905 0.1935 0.8496
vn -0.1015 -0.9792 0.1757
vn -0.5000 -0.0000 0.8660
vn -0.1015 0.9792 0.1757
vn -0.4905 -0.1935 0.8496
vn -0.6541 0.3798 0.6541
vn -0.6937 0.1935 0.6937
vn -0.2755 -0.9210 0.2755
vn -0.1435 -0.9792 0.1435
vn -0.7071 -0.0000 0.7071
vn -0.1435 0.9792 0.1435
vn -0.6937 -0.1935 0.6937
vn -0.2755 0.9210 0.2755
vn -0.6541 -0.3798 0.6541
vn -0.3968 0.8277 0.3968
vn -0.5897 -0.5518 0.5897
vn -0.5029 0.7031 0.5029
vn -0.5029 -0.7031 0.5029
vn -0.5897 0.5518 0.5897
vn -0.3968 -0.8277 0.3968
vn -0.8011 -0.3798 0.4625
vn -0.7222 -0.5518 0.4170
vn -0.4860 0.8277 0.2806
vn -0.6159 0.7031 0.3556
vn -0.6159 -0.7031 0.3556
vn -0.7222 0.5518 0.4170
vn -0.4860 -0.8277 0.2806
vn -0.8011 0.3798 0.4625
vn -0.3374 -0.9210 0.1948
vn -0.8496 0.1935 0.4905
vn -0.1757 -0.9792 0.1015
vn -0.8660 -0.0000 0.5000
vn -0.1757 0.9792 0.1015
vn -0.8496 -0.1935 0.4905
vn -0.3374 0.9210 0.1948
vn -0.3763 -0.9210 0.1008
vn -0.1960 -0.9792 0.0525
vn -0.9477 0.1935 0.2539
vn -0.9659 0.0000 0.2588
vn -0.1960 0.9792 0.0525
vn -0.9477 -0.1935 0.2539
vn -0.3763 0.9210 0.1008
vn -0.8935 -0.3798 0.2394
vn -0.5420 0.8277 0.1452
vn -0.8055 -0.5518 0.2158
vn -0.6869 0.7031 0.1841
vn -0.6869 -0.7031 0.1841
vn -0.8055 0.5518 0.2158
vn -0.5420 -0.8277 0.1452
vn -0.8935 0.3798 0.2394
vn -0.8340 -0.5518 -0.0000
vn -0.7111 -0.7031 -0.0000
vn -0.7111 0.7031 0.0000
vn -0.8340 0.5518 -0.0000
vn -0.5612 -0.8277 -0.0000
vn -0.9251 0.3798 -0.0000
vn -0.3896 -0.9210 -0.0000
vn -0.9811 0.1935 0.0000
vn -0.2029 -0.9792 0.0000
vn -1.0000 -0.0000 -0.0000
vn -0.2029 0.9792 0.0000
vn -0.9811 -0.1935 0.0000
vn -0.3896 0.9210 -0.0000
vn -0.9251 -0.3798 -0.0000
vn -0.5612 0.8277 -0.0000
vn -0.1960 0.9792 -0.0525
vn -0.1960 -0.9792 -0.0525
vn -0.9659 -0.0000 -0.2588
vn -0.9477 -0.1935 -0.2539
vn -0.3763 0.9210 -0.1008
vn -0.8935 -0.3798 -0.2394
vn -0.5420 0.8277 -0.1452
vn -0.8055 -0.5518 -0.2158
vn -0.6869 0.7031 -0.1841
vn -0.6869 -0.7031 -0.1841
vn -0.8055 0.5518 -0.2158
vn -0.5420 -0.8277 -0.1452
vn -0.8935 0.3798 -0.2394
vn -0.3763 -0.9210 -0.1008
vn -0.9477 0.1935 -0.2539
vn -0.6159 0.7031 -0.3556
vn -0.7222 0.5518 -0.4170
vn -0.6159 -0.7031 -0.3556
vn -0.4860 -0.8277 -0.2806
vn -0.8011 0.3798 -0.4625
vn -0.3374 -0.9210 -0.1948
vn -0.8496 0.1935 -0.4905
vn -0.1757 -0.9792 -0.1015
vn -0.8660 0.0000 -0.5000
vn -0.1757 0.9792 -0.1015
vn -0.8496 -0.1935 -0.4905
vn -0.3374 0.9210 -0.1948
vn -0.8011 -0.3798 -0.4625
vn -0.4860 0.8277 -0.2806
vn -0.7222 -0.5518 -0.4170
vn -0.7071 -0.0000 -0.7071
vn -0.6937 -0.1935 -0.6937
vn -0.1435 0.9792 -0.1435
vn -0.2755 0.9210 -0.2755
vn -0.6541 -0.3798 -0.6541
vn -0.3968 0.8277 -0.3968
vn -0.5897 -0.5518 -0.5897
vn -0.5029 0.7031 -0.5029
vn -0.5029 -0.7031 -0.5029
vn -0.5897 0.5518 -0.5897
vn -0.3968 -0.8277 -0.3968
vn -0.6541 0.3798 -0.6541
vn -0.2755 -0.9210 -0.2755
vn -0.6937 0.1935 -0.6937
vn -0.1435 -0.9792 -0.1435
vn -0.3556 -0.7031 -0.6159
vn -0.2806 -0.8277 -0.4860
vn -0.4170 0.5518 -0.7222
vn -0.4625 0.3798 -0.8011
vn -0.1948 -0.9210 -0.3374
vn -0.4905 0.1935 -0.8496
vn -0.1015 -0.9792 -0.1757
vn -0.5000 -0.0000 -0.8660
vn -0.1015 0.9792 -0.1757
vn -0.4905 -0.1935 -0.8496
vn -0.1948 0.9210 -0.3374
vn -0.4625 -0.3798 -0.8011
vn -0.2806 0.8277 -0.4860
vn -0.4170 -0.5518 -0.7222
vn -0.3556 0.7031 -0.6159
vn -0.0525 0.9792 -0.1960
vn -0.1008 0.9210 -0.3763
vn -0.2539 -0.1935 -0.9477
vn -0.2394 -0.3798 -0.8935
vn -0.1452 0.8277 -0.5420
vn -0.2158 -0.5518 -0.8055
vn -0.1841 0.7031 -0.6869
vn -0.1841 -0.7031 -0.6869
vn -0.2158 0.5518 -0.8055
vn -0.1452 -0.8277 -0.5420
vn -0.2394 0.3798 -0.8935
vn -0.1008 -0.9210 -0.3763
vn -0.2539 0.1935 -0.9477
vn -0.0525 -0.9792 -0.1960
vn -0.2588 -0.0000 -0.9659
vn 0.1274 -0.3685 -0.9209
vn -0.0205 0.9888 0.1480
vn 0.2922 -0.3710 -0.8815
vn 0.4461 -0.3783 -0.8111
vn 0.5832 -0.3903 -0.7124
vn 0.6984 -0.4063 -0.5892
vn 0.7871 -0.4259 -0.4462
vn 0.8459 -0.4482 -0.2890
vn 0.8727 -0.4724 -0.1234
vn 0.8663 -0.4976 0.0439
vn 0.8270 -0.5228 0.2068
vn 0.7563 -0.5471 0.3588
vn 0.6570 -0.5694 0.4942
vn 0.5328 -0.5889 0.6077
vn 0.3885 -0.6050 0.6950
vn 0.2297 -0.6169 0.7528
vn 0.0624 -0.6243 0.7787
vn -0.1068 -0.6268 0.7718
vn -0.2715 -0.6243 0.7325
vn -0.4255 -0.6169 0.6621
vn -0.5626 -0.6050 0.5634
vn -0.6778 -0.5889 0.4402
vn -0.7665 -0.5694 0.2972
vn -0.8253 -0.5471 0.1400
vn -0.8521 -0.5228 -0.0256
vn -0.8457 -0.4976 -0.1929
vn -0.8064 -0.4724 -0.3558
vn -0.7357 -0.4482 -0.5078
vn -0.6363 -0.4259 -0.6432
vn -0.5121 -0.4063 -0.7567
vn -0.3679 -0.3903 -0.8440
vn -0.2091 -0.3783 -0.9018
vn -0.0418 -0.3710 -0.9277
vn -0.1274 -0.3685 -0.9209
vn 0.0205 0.9888 0.1480
vn 0.0418 -0.3710 -0.9277
vn 0.2091 -0.3783 -0.9018
vn 0.3679 -0.3903 -0.8440
vn 0.5121 -0.4063 -0.7567
vn 0.6363 -0.4259 -0.6432
vn 0.7357 -0.4482 -0.5078
vn 0.8064 -0.4724 -0.3558
vn 0.8457 -0.4976 -0.1929
vn 0.8521 -0.5228 -0.0256
vn 0.8253 -0.5471 0.1400
vn 0.7665 -0.5694 0.2972
vn 0.6778 -0.5889 0.4402
vn 0.5626 -0.6050 0.5634
vn 0.4255 -0.6169 0.6621
vn 0.2715 -0.6243 0.7325
vn 0.1068 -0.6268 0.7718
vn -0.0624 -0.6243 0.7787
vn -0.2297 -0.6169 0.7528
vn -0.3885 -0.6050 0.6950
vn -0.5328 -0.5889 0.6077
vn -0.6570 -0.5694 0.4942
vn -0.7563 -0.5471 0.3588
vn -0.8270 -0.5228 0.2068
vn -0.8663 -0.4976 0.0439
vn -0.8727 -0.4724 -0.1234
vn -0.8459 -0.4482 -0.2890
vn -0.7871 -0.4259 -0.4462
vn -0.6984 -0.4063 -0.5892
vn -0.5832 -0.3903 -0.7124
vn -0.4461 -0.3783 -0.8111
vn -0.2922 -0.3710 -0.8815
vn -0.0000 0.3718 -0.9283
vn -0.0000 0.6913 -0.7226
vn 0.3613 0.6913 -0.6258
vn 0.4642 0.3718 -0.8040
vn 0.0000 0.9122 -0.4097
vn 0.2049 0.9122 -0.3548
vn 0.0000 -0.9122 -0.4097
vn 0.2049 -0.9122 -0.3548
vn -0.0000 -0.6913 -0.7226
vn 0.0000 -0.3718 -0.9283
vn 0.4642 -0.3718 -0.8040
vn 0.3613 -0.6913 -0.6258
vn 0.8040 -0.3718 -0.4642
vn 0.6258 -0.6913 -0.3613
vn 0.8040 0.3718 -0.4642
vn 0.3548 0.9122 -0.2048
vn 0.6258 0.6913 -0.3613
vn 0.3548 -0.9122 -0.2048
vn 0.7226 -0.6913 0.0000
vn 0.4097 -0.9122 0.0000
vn 0.9283 -0.3718 0.0000
vn 0.7226 0.6913 0.0000
vn 0.9283 0.3718 0.0000
vn 0.4097 0.9122 0.0000
vn 0.8040 -0.3718 0.4642
vn 0.6258 0.6913 0.3613
vn 0.8040 0.3718 0.4642
vn 0.3548 0.9122 0.2049
vn 0.3548 -0.9122 0.2049
vn 0.6258 -0.6913 0.3613
vn 0.2049 -0.9122 0.3548
vn 0.4642 -0.3718 0.8040
vn 0.3613 -0.6913 0.6258
vn 0.4642 0.3718 0.8040
vn 0.2049 0.9122 0.3548
vn 0.3613 0.6913 0.6258
vn -0.0000 0.3718 0.9283
vn 0.0000 0.9122 0.4097
vn -0.0000 0.6913 0.7226
vn 0.0000 -0.6913 0.7226
vn 0.0000 -0.9122 0.4097
vn -0.0000 -0.3718 0.9283
vn -0.3613 -0.6913 0.6258
vn -0.2049 -0.9122 0.3548
vn -0.4642 -0.3718 0.8040
vn -0.3613 0.6913 0.6258
vn -0.4642 0.3718 0.8040
vn -0.2049 0.9122 0.3548
vn -0.6258 0.6913 0.3613
vn -0.8040 0.3718 0.4642
vn -0.3548 0.9122 0.2048
vn -0.3548 -0.9122 0.2048
vn -0.8040 -0.3718 0.4642
vn -0.6258 -0.6913 0.3613
vn -0.4097 -0.9122 -0.0000
vn -0.9283 -0.3718 -0.0000
vn -0.7226 -0.6913 -0.0000
vn -0.9283 0.3718 -0.0000
vn -0.4097 0.9122 -0.0000
vn -0.7226 0.6913 -0.0000
vn -0.3548 0.9122 -0.2048
vn -0.6258 0.6913 -0.3613
vn -0.6258 -0.6913 -0.3613
vn -0.3548 -0.9122 -0.2048
vn -0.8040 -0.3718 -0.4642
vn -0.8040 0.3718 -0.4642
vn -0.3613 -0.6913 -0.6258
vn -0.2049 -0.9122 -0.3548
vn -0.4642 -0.3718 -0.8040
vn -0.3613 0.6913 -0.6258
vn -0.4642 0.3718 -0.8040
vn -0.2049 0.9122 -0.3548
vn -0.3548 -0.9122 0.2049
vn 0.0000 0.4092 -0.9124
vn -0.0000 0.7464 -0.6655
vn 0.1042 0.7808 -0.6161
vn 0.1665 0.4633 -0.8704
vn -0.0000 -0.7464 -0.6655
vn -0.0000 -0.4092 -0.9124
vn 0.1665 -0.4633 -0.8704
vn 0.1042 -0.7808 -0.6161
vn 0.0000 -0.1801 -0.9836
vn 0.1929 -0.0000 -0.9812
vn 0.1879 -0.2104 -0.9594
vn 0.0000 0.1801 -0.9836
vn 0.1879 0.2104 -0.9594
vn 0.5618 0.0000 -0.8273
vn 0.5171 -0.3370 -0.7868
vn 0.3975 0.6320 -0.6653
vn 0.5171 0.3370 -0.7868
vn 0.2246 0.8653 -0.4482
vn 0.2246 -0.8653 -0.4482
vn 0.3975 -0.6320 -0.6653
vn 0.3442 -0.9389 0.0000
vn 0.8897 -0.4566 0.0000
vn 0.6329 -0.7742 0.0000
vn 0.8897 0.4566 0.0000
vn 0.3442 0.9389 -0.0000
vn 0.6329 0.7742 0.0000
vn 0.5171 0.3370 0.7868
vn 0.5618 0.0000 0.8273
vn 0.2246 0.8653 0.4482
vn 0.3975 0.6320 0.6653
vn 0.3975 -0.6320 0.6653
vn 0.2246 -0.8653 0.4482
vn 0.5171 -0.3370 0.7868
vn 0.1665 -0.4633 0.8704
vn 0.1042 -0.7808 0.6161
vn 0.1929 0.0000 0.9812
vn 0.1879 -0.2104 0.9594
vn 0.1665 0.4633 0.8704
vn 0.1879 0.2104 0.9594
vn 0.1042 0.7808 0.6161
vn -0.0000 0.4092 0.9124
vn 0.0000 0.1801 0.9836
vn 0.0000 0.7464 0.6655
vn 0.0000 -0.7464 0.6655
vn -0.0000 -0.1801 0.9836
vn 0.0000 -0.4092 0.9124
vn -0.1042 -0.7808 0.6161
vn -0.1879 -0.2104 0.9594
vn -0.1665 -0.4633 0.8704
vn -0.1879 0.2104 0.9594
vn -0.1929 -0.0000 0.9812
vn -0.1042 0.7808 0.6161
vn -0.1665 0.4633 0.8704
vn -0.2246 0.8653 0.4482
vn -0.3975 0.6320 0.6653
vn -0.3975 -0.6320 0.6653
vn -0.2246 -0.8653 0.4482
vn -0.5618 -0.0000 0.8273
vn -0.5171 -0.3370 0.7868
vn -0.5171 0.3370 0.7868
vn -0.6329 -0.7742 -0.0000
vn -0.3442 -0.9389 -0.0000
vn -0.8897 -0.4566 -0.0000
vn -0.6329 0.7742 -0.0000
vn -0.8897 0.4566 -0.0000
vn -0.3442 0.9389 -0.0000
vn -0.2246 0.8653 -0.4482
vn -0.2246 -0.8653 -0.4482
vn -0.5171 -0.3370 -0.7868
vn -0.3975 -0.6320 -0.6653
vn -0.5171 0.3370 -0.7868
vn -0.5618 0.0000 -0.8273
vn -0.3975 0.6320 -0.6653
vn -0.1879 -0.2104 -0.9594
vn -0.1665 -0.4633 -0.8704
vn -0.1879 0.2104 -0.9594
vn -0.1929 0.0000 -0.9812
vn -0.1042 0.7808 -0.6161
vn -0.1665 0.4633 -0.8704
vn -0.1042 -0.7808 -0.6161
usemtl M_Orange
s 1
f 356/1/1 355/2/2 10/3/3 11/4/4
f 351/5/5 199/6/6 4/7/7
f 215/8/8 362/9/9 18/10/10
f 357/11/11 356/1/1 11/4/4 12/12/12
f 352/13/13 351/5/5 4/7/7 5/14/14
f 358/15/15 357/11/11 12/12/12 13/16/16
f 353/17/17 352/13/13 5/14/14 6/18/18
f 3/19/19 358/15/15 13/16/16 14/20/20
f 354/21/21 353/17/17 6/18/18 7/22/22
f 359/23/23 3/19/19 14/20/20 15/24/24
f 1/25/25 354/21/21 7/22/22 8/26/26
f 360/27/27 359/23/23 15/24/24 16/28/28
f 2/29/29 1/25/25 8/26/26 9/30/30
f 361/31/31 360/27/27 16/28/28 17/32/32
f 355/2/2 2/29/29 9/30/30 10/3/3
f 362/9/9 361/31/31 17/32/32 18/10/10
f 10/3/3 9/30/30 24/33/33 25/34/34
f 18/10/10 17/32/32 32/35/35 33/36/36
f 11/4/4 10/3/3 25/34/34 26/37/37
f 4/7/7 199/38/6 19/39/38
f 215/40/8 18/10/10 33/36/36
f 12/12/12 11/4/4 26/37/37 27/41/39
f 5/14/14 4/7/7 19/39/38 20/42/40
f 13/16/16 12/12/12 27/41/39 28/43/41
f 6/18/18 5/14/14 20/42/40 21/44/42
f 14/20/20 13/16/16 28/43/41 29/45/43
f 7/22/22 6/18/18 21/44/42 22/46/44
f 15/24/24 14/20/20 29/45/43 30/47/45
f 8/26/26 7/22/22 22/46/44 23/48/46
f 16/28/28 15/24/24 30/47/45 31/49/47
f 9/30/30 8/26/26 23/48/46 24/33/33
f 17/32/32 16/28/28 31/49/47 32/35/35
f 29/45/43 28/43/41 43/50/48 44/51/49
f 22/46/44 21/44/42 36/52/50 37/53/51
f 30/47/45 29/45/43 44/51/49 45/54/52
f 23/48/46 22/46/44 37/53/51 38/55/53
f 31/49/47 30/47/45 45/54/52 46/56/54
f 24/33/33 23/48/46 38/55/53 39/57/55
f 32/35/35 31/49/47 46/56/54 47/58/56
f 25/34/34 24/33/33 39/57/55 40/59/57
f 33/36/36 32/35/35 47/58/56 48/60/58
f 26/37/37 25/34/34 40/59/57 41/61/59
f 19/39/38 199/62/6 34/63/60
f 215/64/8 33/36/36 48/60/58
f 27/41/39 26/37/37 41/61/59 42/65/61
f 20/42/40 19/39/38 34/63/60 35/66/62
f 28/43/41 27/41/39 42/65/61 43/50/48
f 21/44/42 20/42/40 35/66/62 36/52/50
f 48/60/58 47/58/56 62/67/63 63/68/64
f 41/61/59 40/59/57 55/69/65 56/70/66
f 34/63/60 199/71/6 49/72/67
f 215/73/8 48/60/58 63/68/64
f 42/65/61 41/61/59 56/70/66 57/74/68
f 35/66/62 34/63/60 49/72/67 50/75/69
f 43/50/48 42/65/61 57/74/68 58/76/70
f 36/52/50 35/66/62 50/75/69 51/77/71
f 44/51/49 43/50/48 58/76/70 59/78/72
f 37/53/51 36/52/50 51/77/71 52/79/73
f 45/54/52 44/51/49 59/78/72 60/80/74
f 38/55/53 37/53/51 52/79/73 53/81/75
f 46/56/54 45/54/52 60/80/74 61/82/76
f 39/57/55 38/55/53 53/81/75 54/83/77
f 47/58/56 46/56/54 61/82/76 62/67/63
f 40/59/57 39/57/55 54/83/77 55/69/65
f 52/79/73 51/77/71 66/84/78 67/85/79
f 60/80/74 59/78/72 74/86/80 75/87/81
f 53/81/75 52/79/73 67/85/79 68/88/82
f 61/82/76 60/80/74 75/87/81 76/89/83
f 54/83/77 53/81/75 68/88/82 69/90/84
f 62/67/63 61/82/76 76/89/83 77/91/85
f 55/69/65 54/83/77 69/90/84 70/92/86
f 63/68/64 62/67/63 77/91/85 78/93/87
f 56/70/66 55/69/65 70/92/86 71/94/88
f 49/72/67 199/95/6 64/96/89
f 215/97/8 63/68/64 78/93/87
f 57/74/68 56/70/66 71/94/88 72/98/90
f 50/75/69 49/72/67 64/96/89 65/99/91
f 58/76/70 57/74/68 72/98/90 73/100/92
f 51/77/71 50/75/69 65/99/91 66/84/78
f 59/78/72 58/76/70 73/100/92 74/86/80
f 71/94/88 70/92/86 85/101/93 86/102/94
f 64/96/89 199/103/6 79/104/95
f 215/105/8 78/93/87 93/106/96
f 72/98/90 71/94/88 86/102/94 87/107/97
f 65/99/91 64/96/89 79/104/95 80/108/98
f 73/100/92 72/98/90 87/107/97 88/109/99
f 66/84/78 65/99/91 80/108/98 81/110/100
f 74/86/80 73/100/92 88/109/99 89/111/101
f 67/85/79 66/84/78 81/110/100 82/112/102
f 75/87/81 74/86/80 89/111/101 90/113/103
f 68/88/82 67/85/79 82/112/102 83/114/104
f 76/89/83 75/87/81 90/113/103 91/115/105
f 69/90/84 68/88/82 83/114/104 84/116/106
f 77/91/85 76/89/83 91/115/105 92/117/107
f 70/92/86 69/90/84 84/116/106 85/101/93
f 78/93/87 77/91/85 92/117/107 93/106/96
f 90/113/103 89/111/101 104/118/108 105/119/109
f 83/114/104 82/112/102 97/120/110 98/121/111
f 91/115/105 90/113/103 105/119/109 106/122/112
f 84/116/106 83/114/104 98/121/111 99/123/113
f 92/117/107 91/115/105 106/122/112 107/124/114
f 85/101/93 84/116/106 99/123/113 100/125/115
f 93/106/96 92/117/107 107/124/114 108/126/116
f 86/102/94 85/101/93 100/125/115 101/127/117
f 79/104/95 199/128/6 94/129/118
f 215/130/8 93/106/96 108/126/116
f 87/107/97 86/102/94 101/127/117 102/131/119
f 80/108/98 79/104/95 94/129/118 95/132/120
f 88/109/99 87/107/97 102/131/119 103/133/121
f 81/110/100 80/108/98 95/132/120 96/134/122
f 89/111/101 88/109/99 103/133/121 104/118/108
f 82/112/102 81/110/100 96/134/122 97/120/110
f 215/135/8 108/126/116 123/136/123
f 102/131/119 101/127/117 116/137/124 117/138/125
f 95/132/120 94/129/118 109/139/126 110/140/127
f 103/133/121 102/131/119 117/138/125 118/141/128
f 96/134/122 95/132/120 110/140/127 111/142/129
f 104/118/108 103/133/121 118/141/128 119/143/130
f 97/120/110 96/134/122 111/142/129 112/144/131
f 105/119/109 104/118/108 119/143/130 120/145/132
f 98/121/111 97/120/110 112/144/131 113/146/133
f 106/122/112 105/119/109 120/145/132 121/147/134
f 99/123/113 98/121/111 113/146/133 114/148/135
f 107/124/114 106/122/112 121/147/134 122/149/136
f 100/125/115 99/123/113 114/148/135 115/150/137
f 108/126/116 107/124/114 122/149/136 123/136/123
f 101/127/117 100/125/115 115/150/137 116/137/124
f 94/129/118 199/151/6 109/139/126
f 121/147/134 120/145/132 135/152/138 136/153/139
f 114/148/135 113/146/133 128/154/140 129/155/141
f 122/149/136 121/147/134 136/153/139 137/156/142
f 115/150/137 114/148/135 129/155/141 130/157/143
f 123/136/123 122/149/136 137/156/142 138/158/144
f 116/137/124 115/150/137 130/157/143 131/159/145
f 109/139/126 199/160/6 124/161/146
f 215/162/8 123/136/123 138/158/144
f 117/138/125 116/137/124 131/159/145 132/163/147
f 110/140/127 109/139/126 124/161/146 125/164/148
f 118/141/128 117/138/125 132/163/147 133/165/149
f 111/142/129 110/140/127 125/164/148 126/166/150
f 119/143/130 118/141/128 133/165/149 134/167/151
f 112/144/131 111/142/129 126/166/150 127/168/152
f 120/145/132 119/143/130 134/167/151 135/152/138
f 113/146/133 112/144/131 127/168/152 128/154/140
f 125/164/148 124/161/146 139/169/153 140/170/154
f 133/165/149 132/163/147 147/171/155 148/172/156
f 126/166/150 125/164/148 140/170/154 141/173/157
f 134/167/151 133/165/149 148/172/156 149/174/158
f 127/168/152 126/166/150 141/173/157 142/175/159
f 135/152/138 134/167/151 149/174/158 150/176/160
f 128/154/140 127/168/152 142/175/159 143/177/161
f 136/153/139 135/152/138 150/176/160 151/178/162
f 129/155/141 128/154/140 143/177/161 144/179/163
f 137/156/142 136/153/139 151/178/162 152/180/164
f 130/157/143 129/155/141 144/179/163 145/181/165
f 138/158/144 137/156/142 152/180/164 153/182/166
f 131/159/145 130/157/143 145/181/165 146/183/167
f 124/161/146 199/184/6 139/169/153
f 215/185/8 138/158/144 153/182/166
f 132/163/147 131/159/145 146/183/167 147/171/155
f 144/179/163 143/177/161 158/186/168 159/187/169
f 152/180/164 151/178/162 166/188/170 167/189/171
f 145/181/165 144/179/163 159/187/169 160/190/172
f 153/182/166 152/180/164 167/189/171 168/191/173
f 146/183/167 145/181/165 160/190/172 161/192/174
f 139/169/153 199/193/6 154/194/175
f 215/195/8 153/182/166 168/191/173
f 147/171/155 146/183/167 161/192/174 162/196/176
f 140/170/154 139/169/153 154/194/175 155/197/177
f 148/172/156 147/171/155 162/196/176 163/198/178
f 141/173/157 140/170/154 155/197/177 156/199/179
f 149/174/158 148/172/156 163/198/178 164/200/180
f 142/175/159 141/173/157 156/199/179 157/201/181
f 150/176/160 149/174/158 164/200/180 165/202/182
f 143/177/161 142/175/159 157/201/181 158/186/168
f 151/178/162 150/176/160 165/202/182 166/188/170
f 163/198/178 162/196/176 177/203/183 178/204/184
f 156/199/179 155/197/177 170/205/185 171/206/186
f 164/200/180 163/198/178 178/204/184 179/207/187
f 157/201/181 156/199/179 171/206/186 172/208/188
f 165/202/182 164/200/180 179/207/187 180/209/189
f 158/186/168 157/201/181 172/208/188 173/210/190
f 166/188/170 165/202/182 180/209/189 181/211/191
f 159/187/169 158/186/168 173/210/190 174/212/192
f 167/189/171 166/188/170 181/211/191 182/213/193
f 160/190/172 159/187/169 174/212/192 175/214/194
f 168/191/173 167/189/171 182/213/193 183/215/195
f 161/192/174 160/190/172 175/214/194 176/216/196
f 154/194/175 199/217/6 169/218/197
f 215/219/8 168/191/173 183/215/195
f 162/196/176 161/192/174 176/216/196 177/203/183
f 155/197/177 154/194/175 169/218/197 170/205/185
f 182/213/193 181/211/191 196/220/198 197/221/199
f 175/214/194 174/212/192 189/222/200 190/223/201
f 183/215/195 182/213/193 197/221/199 198/224/202
f 176/216/196 175/214/194 190/223/201 191/225/203
f 169/218/197 199/226/6 184/227/204
f 215/228/8 183/215/195 198/224/202
f 177/203/183 176/216/196 191/225/203 192/229/205
f 170/205/185 169/218/197 184/227/204 185/230/206
f 178/204/184 177/203/183 192/229/205 193/231/207
f 171/206/186 170/205/185 185/230/206 186/232/208
f 179/207/187 178/204/184 193/231/207 194/233/209
f 172/208/188 171/206/186 186/232/208 187/234/210
f 180/209/189 179/207/187 194/233/209 195/235/211
f 173/210/190 172/208/188 187/234/210 188/236/212
f 181/211/191 180/209/189 195/235/211 196/220/198
f 174/212/192 173/210/190 188/236/212 189/222/200
f 186/232/208 185/230/206 201/237/213 202/238/214
f 194/233/209 193/231/207 209/239/215 210/240/216
f 187/234/210 186/232/208 202/238/214 203/241/217
f 195/235/211 194/233/209 210/240/216 211/242/218
f 188/236/212 187/234/210 203/241/217 204/243/219
f 196/220/198 195/235/211 211/242/218 212/244/220
f 189/222/200 188/236/212 204/243/219 205/245/221
f 197/221/199 196/220/198 212/244/220 213/246/222
f 190/223/201 189/222/200 205/245/221 206/247/223
f 198/224/202 197/221/199 213/246/222 214/248/224
f 191/225/203 190/223/201 206/247/223 207/249/225
f 184/227/204 199/250/6 200/251/226
f 215/252/8 198/224/202 214/248/224
f 192/229/205 191/225/203 207/249/225 208/253/227
f 185/230/206 184/227/204 200/251/226 201/237/213
f 193/231/207 192/229/205 208/253/227 209/239/215
f 206/247/223 205/245/221 221/254/228 222/255/229
f 214/248/224 213/246/222 229/256/230 230/257/231
f 207/249/225 206/247/223 222/255/229 223/258/232
f 200/251/226 199/259/6 216/260/233
f 215/261/8 214/248/224 230/257/231
f 208/253/227 207/249/225 223/258/232 224/262/234
f 201/237/213 200/251/226 216/260/233 217/263/235
f 209/239/215 208/253/227 224/262/234 225/264/236
f 202/238/214 201/237/213 217/263/235 218/265/237
f 210/240/216 209/239/215 225/264/236 226/266/238
f 203/241/217 202/238/214 218/265/237 219/267/239
f 211/242/218 210/240/216 226/266/238 227/268/240
f 204/243/219 203/241/217 219/267/239 220/269/241
f 212/244/220 211/242/218 227/268/240 228/270/242
f 205/245/221 204/243/219 220/269/241 221/254/228
f 213/246/222 212/244/220 228/270/242 229/256/230
f 226/266/238 225/264/236 240/271/243 241/272/244
f 219/267/239 218/265/237 233/273/245 234/274/246
f 227/268/240 226/266/238 241/272/244 242/275/247
f 220/269/241 219/267/239 234/274/246 235/276/248
f 228/270/242 227/268/240 242/275/247 243/277/249
f 221/254/228 220/269/241 235/276/248 236/278/250
f 229/256/230 228/270/242 243/277/249 244/279/251
f 222/255/229 221/254/228 236/278/250 237/280/252
f 230/257/231 229/256/230 244/279/251 245/281/253
f 223/258/232 222/255/229 237/280/252 238/282/254
f 216/260/233 199/283/6 231/284/255
f 215/285/8 230/257/231 245/281/253
f 224/262/234 223/258/232 238/282/254 239/286/256
f 217/263/235 216/260/233 231/284/255 232/287/257
f 225/264/236 224/262/234 239/286/256 240/271/243
f 218/265/237 217/263/235 232/287/257 233/273/245
f 245/281/253 244/279/251 259/288/258 260/289/259
f 238/282/254 237/280/252 252/290/260 253/291/261
f 231/284/255 199/292/6 246/293/262
f 215/294/8 245/281/253 260/289/259
f 239/286/256 238/282/254 253/291/261 254/295/263
f 232/287/257 231/284/255 246/293/262 247/296/264
f 240/271/243 239/286/256 254/295/263 255/297/265
f 233/273/245 232/287/257 247/296/264 248/298/266
f 241/272/244 240/271/243 255/297/265 256/299/267
f 234/274/246 233/273/245 248/298/266 249/300/268
f 242/275/247 241/272/244 256/299/267 257/301/269
f 235/276/248 234/274/246 249/300/268 250/302/270
f 243/277/249 242/275/247 257/301/269 258/303/271
f 236/278/250 235/276/248 250/302/270 251/304/272
f 244/279/251 243/277/249 258/303/271 259/288/258
f 237/280/252 236/278/250 251/304/272 252/290/260
f 257/301/269 256/299/267 271/305/273 272/306/274
f 250/302/270 249/300/268 264/307/275 265/308/276
f 258/303/271 257/301/269 272/306/274 273/309/277
f 251/304/272 250/302/270 265/308/276 266/310/278
f 259/288/258 258/303/271 273/309/277 274/311/279
f 252/290/260 251/304/272 266/310/278 267/312/280
f 260/289/259 259/288/258 274/311/279 275/313/281
f 253/291/261 252/290/260 267/312/280 268/314/282
f 246/293/262 199/315/6 261/316/283
f 215/317/8 260/289/259 275/313/281
f 254/295/263 253/291/261 268/314/282 269/318/284
f 247/296/264 246/293/262 261/316/283 262/319/285
f 255/297/265 254/295/263 269/318/284 270/320/286
f 248/298/266 247/296/264 262/319/285 263/321/287
f 256/299/267 255/297/265 270/320/286 271/305/273
f 249/300/268 248/298/266 263/321/287 264/307/275
f 261/322/283 199/323/6 276/324/288
f 215/325/8 275/326/281 290/327/289
f 269/328/284 268/329/282 283/330/290 284/331/291
f 262/332/285 261/322/283 276/324/288 277/333/292
f 270/334/286 269/328/284 284/331/291 285/335/293
f 263/336/287 262/332/285 277/333/292 278/337/294
f 271/338/273 270/334/286 285/335/293 286/339/295
f 264/340/275 263/336/287 278/337/294 279/341/296
f 272/342/274 271/338/273 286/339/295 287/343/297
f 265/344/276 264/340/275 279/341/296 280/345/298
f 273/346/277 272/342/274 287/343/297 288/347/299
f 266/348/278 265/344/276 280/345/298 281/349/300
f 274/350/279 273/346/277 288/347/299 289/351/301
f 267/352/280 266/348/278 281/349/300 282/353/302
f 275/326/281 274/350/279 289/351/301 290/327/289
f 268/329/282 267/352/280 282/353/302 283/330/290
f 280/345/298 279/341/296 294/354/303 295/355/304
f 288/347/299 287/343/297 302/356/305 303/357/306
f 281/349/300 280/345/298 295/355/304 296/358/307
f 289/351/301 288/347/299 303/357/306 304/359/308
f 282/353/302 281/349/300 296/358/307 297/360/309
f 290/327/289 289/351/301 304/359/308 305/361/310
f 283/330/290 282/353/302 297/360/309 298/362/311
f 276/324/288 199/363/6 291/364/312
f 215/365/8 290/327/289 305/361/310
f 284/331/291 283/330/290 298/362/311 299/366/313
f 277/333/292 276/324/288 291/364/312 292/367/314
f 285/335/293 284/331/291 299/366/313 300/368/315
f 278/337/294 277/333/292 292/367/314 293/369/316
f 286/339/295 285/335/293 300/368/315 301/370/317
f 279/341/296 278/337/294 293/369/316 294/354/303
f 287/343/297 286/339/295 301/370/317 302/356/305
f 299/366/313 298/362/311 313/371/318 314/372/319
f 292/367/314 291/364/312 306/373/320 307/374/321
f 300/368/315 299/366/313 314/372/319 315/375/322
f 293/369/316 292/367/314 307/374/321 308/376/323
f 301/370/317 300/368/315 315/375/322 316/377/324
f 294/354/303 293/369/316 308/376/323 309/378/325
f 302/356/305 301/370/317 316/377/324 317/379/326
f 295/355/304 294/354/303 309/378/325 310/380/327
f 303/357/306 302/356/305 317/379/326 318/381/328
f 296/358/307 295/355/304 310/380/327 311/382/329
f 304/359/308 303/357/306 318/381/328 319/383/330
f 297/360/309 296/358/307 311/382/329 312/384/331
f 305/361/310 304/359/308 319/383/330 320/385/332
f 298/362/311 297/360/309 312/384/331 313/371/318
f 291/364/312 199/386/6 306/373/320
f 215/387/8 305/361/310 320/385/332
f 318/381/328 317/379/326 332/388/333 333/389/334
f 311/382/329 310/380/327 325/390/335 326/391/336
f 319/383/330 318/381/328 333/389/334 334/392/337
f 312/384/331 311/382/329 326/391/336 327/393/338
f 320/385/332 319/383/330 334/392/337 335/394/339
f 313/371/318 312/384/331 327/393/338 328/395/340
f 306/373/320 199/396/6 321/397/341
f 215/398/8 320/385/332 335/394/339
f 314/372/319 313/371/318 328/395/340 329/399/342
f 307/374/321 306/373/320 321/397/341 322/400/343
f 315/375/322 314/372/319 329/399/342 330/401/344
f 308/376/323 307/374/321 322/400/343 323/402/345
f 316/377/324 315/375/322 330/401/344 331/403/346
f 309/378/325 308/376/323 323/402/345 324/404/347
f 317/379/326 316/377/324 331/403/346 332/388/333
f 310/380/327 309/378/325 324/404/347 325/390/335
f 322/400/343 321/397/341 336/405/348 337/406/349
f 330/401/344 329/399/342 344/407/350 345/408/351
f 323/402/345 322/400/343 337/406/349 338/409/352
f 331/403/346 330/401/344 345/408/351 346/410/353
f 324/404/347 323/402/345 338/409/352 339/411/354
f 332/388/333 331/403/346 346/410/353 347/412/355
f 325/390/335 324/404/347 339/411/354 340/413/356
f 333/389/334 332/388/333 347/412/355 348/414/357
f 326/391/336 325/390/335 340/413/356 341/415/358
f 334/392/337 333/389/334 348/414/357 349/416/359
f 327/393/338 326/391/336 341/415/358 342/417/360
f 335/394/339 334/392/337 349/416/359 350/418/361
f 328/395/340 327/393/338 342/417/360 343/419/362
f 321/397/341 199/420/6 336/405/348
f 215/421/8 335/394/339 350/418/361
f 329/399/342 328/395/340 343/419/362 344/407/350
f 341/415/358 340/413/356 1/25/25 2/29/29
f 349/416/359 348/414/357 360/27/27 361/31/31
f 342/417/360 341/415/358 2/29/29 355/2/2
f 350/418/361 349/416/359 361/31/31 362/9/9
f 343/419/362 342/417/360 355/2/2 356/1/1
f 336/405/348 199/422/6 351/5/5
f 215/423/8 350/418/361 362/9/9
f 344/407/350 343/419/362 356/1/1 357/11/11
f 337/406/349 336/405/348 351/5/5 352/13/13
f 345/408/351 344/407/350 357/11/11 358/15/15
f 338/409/352 337/406/349 352/13/13 353/17/17
f 346/410/353 345/408/351 358/15/15 3/19/19
f 339/411/354 338/409/352 353/17/17 354/21/21
f 347/412/355 346/410/353 3/19/19 359/23/23
f 340/413/356 339/411/354 354/21/21 1/25/25
f 348/414/357 347/412/355 359/23/23 360/27/27
f 363/424/363 395/425/364 364/426/365
f 364/426/365 395/425/364 365/427/366
f 365/427/366 395/425/364 366/428/367
f 366/428/367 395/425/364 367/429/368
f 367/429/368 395/425/364 368/430/369
f 368/430/369 395/425/364 369/431/370
f 369/431/370 395/425/364 370/432/371
f 370/432/371 395/425/364 371/433/372
f 371/433/372 395/425/364 372/434/373
f 372/434/373 395/425/364 373/435/374
f 373/435/374 395/425/364 374/436/375
f 374/436/375 395/425/364 375/437/376
f 375/437/376 395/425/364 376/438/377
f 376/438/377 395/425/364 377/439/378
f 377/439/378 395/425/364 378/440/379
f 378/440/379 395/425/364 379/441/380
f 379/441/380 395/425/364 380/442/381
f 380/442/381 395/425/364 381/443/382
f 381/443/382 395/425/364 382/444/383
f 382/444/383 395/425/364 383/445/384
f 383/445/384 395/425/364 384/446/385
f 384/446/385 395/425/364 385/447/386
f 385/447/386 395/425/364 386/448/387
f 386/448/387 395/425/364 387/449/388
f 387/449/388 395/425/364 388/450/389
f 388/450/389 395/425/364 389/451/390
f 389/451/390 395/425/364 390/452/391
f 390/452/391 395/425/364 391/453/392
f 391/453/392 395/425/364 392/454/393
f 392/454/393 395/425/364 393/455/394
f 363/456/363 364/457/365 365/458/366 366/459/367 367/460/368 368/461/369 369/462/370 370/463/371 371/464/372 372/465/373 373/466/374 374/467/375 375/468/376 376/469/377 377/470/378 378/471/379 379/472/380 380/473/381 381/474/382 382/475/383 383/476/384 384/477/385 385/478/386 386/479/387 387/480/388 388/481/389 389/482/390 390/483/391 391/484/392 392/485/393 393/486/394 394/487/395
f 393/455/394 395/425/364 394/488/395
f 394/488/395 395/425/364 363/424/363
f 396/489/396 428/490/397 397/491/398
f 397/491/398 428/490/397 398/492/399
f 398/492/399 428/490/397 399/493/400
f 399/493/400 428/490/397 400/494/401
f 400/494/401 428/490/397 401/495/402
f 401/495/402 428/490/397 402/496/403
f 402/496/403 428/490/397 403/497/404
f 403/497/404 428/490/397 404/498/405
f 404/498/405 428/490/397 405/499/406
f 405/499/406 428/490/397 406/500/407
f 406/500/407 428/490/397 407/501/408
f 407/501/408 428/490/397 408/502/409
f 408/502/409 428/490/397 409/503/410
f 409/503/410 428/490/397 410/504/411
f 410/504/411 428/490/397 411/505/412
f 411/505/412 428/490/397 412/506/413
f 412/506/413 428/490/397 413/507/414
f 413/507/414 428/490/397 414/508/415
f 414/508/415 428/490/397 415/509/416
f 415/509/416 428/490/397 416/510/417
f 416/510/417 428/490/397 417/511/418
f 417/511/418 428/490/397 418/512/419
f 418/512/419 428/490/397 419/513/420
f 419/513/420 428/490/397 420/514/421
f 420/514/421 428/490/397 421/515/422
f 421/515/422 428/490/397 422/516/423
f 422/516/423 428/490/397 423/517/424
f 423/517/424 428/490/397 424/518/425
f 424/518/425 428/490/397 425/519/426
f 425/519/426 428/490/397 426/520/427
f 396/521/396 397/522/398 398/523/399 399/524/400 400/525/401 401/526/402 402/527/403 403/528/404 404/529/405 405/530/406 406/531/407 407/532/408 408/533/409 409/534/410 410/535/411 411/536/412 412/537/413 413/538/414 414/539/415 415/540/416 416/541/417 417/542/418 418/543/419 419/544/420 420/545/421 421/546/422 422/547/423 423/548/424 424/549/425 425/550/426 426/551/427 427/552/428
f 426/520/427 428/490/397 427/553/428
f 427/553/428 428/490/397 396/489/396
usemtl M_Black
f 429/554/429 511/555/430 432/556/431 433/557/432
f 510/558/433 438/559/6 431/560/434
f 481/561/8 430/562/435 437/563/436
f 514/564/437 513/565/438 435/566/439 436/567/440
f 512/568/1 429/554/429 433/557/432 434/569/37
f 511/555/430 510/558/433 431/560/434 432/556/431
f 430/562/435 514/564/437 436/567/440 437/563/436
f 513/565/438 512/568/1 434/569/37 435/566/439
f 436/567/440 435/566/439 443/570/441 444/571/442
f 434/569/37 433/557/432 441/572/443 442/573/66
f 432/556/431 431/560/434 439/574/444 440/575/445
f 437/563/436 436/567/440 444/571/442 445/576/446
f 435/566/439 434/569/37 442/573/66 443/570/441
f 433/557/432 432/556/431 440/575/445 441/572/443
f 431/560/434 438/577/6 439/574/444
f 481/578/8 437/563/436 445/576/446
f 445/576/446 444/571/442 451/579/447 452/580/448
f 443/570/441 442/573/66 449/581/94 450/582/449
f 441/572/443 440/575/445 447/583/450 448/584/451
f 439/574/444 438/585/6 446/586/452
f 481/587/8 445/576/446 452/580/448
f 444/571/442 443/570/441 450/582/449 451/579/447
f 442/573/66 441/572/443 448/584/451 449/581/94
f 440/575/445 439/574/444 446/586/452 447/583/450
f 450/582/449 449/581/94 456/588/124 457/589/453
f 448/584/451 447/583/450 454/590/454 455/591/455
f 446/586/452 438/592/6 453/593/456
f 481/594/8 452/580/448 459/595/457
f 451/579/447 450/582/449 457/589/453 458/596/458
f 449/581/94 448/584/451 455/591/455 456/588/124
f 447/583/450 446/586/452 453/593/456 454/590/454
f 452/580/448 451/579/447 458/596/458 459/595/457
f 481/597/8 459/595/457 466/598/459
f 458/596/458 457/589/453 464/599/460 465/600/461
f 456/588/124 455/591/455 462/601/462 463/602/167
f 454/590/454 453/593/456 460/603/463 461/604/464
f 459/595/457 458/596/458 465/600/461 466/598/459
f 457/589/453 456/588/124 463/602/167 464/599/460
f 455/591/455 454/590/454 461/604/464 462/601/462
f 453/593/456 438/605/6 460/603/463
f 463/602/167 462/601/462 469/606/465 470/607/196
f 461/604/464 460/603/463 467/608/466 468/609/467
f 466/598/459 465/600/461 472/610/468 473/611/469
f 464/599/460 463/602/167 470/607/196 471/612/470
f 462/601/462 461/604/464 468/609/467 469/606/465
f 460/603/463 438/613/6 467/608/466
f 481/614/8 466/598/459 473/611/469
f 465/600/461 464/599/460 471/612/470 472/610/468
f 473/611/469 472/610/468 479/615/471 480/616/472
f 471/612/470 470/607/196 477/617/225 478/618/473
f 469/606/465 468/609/467 475/619/474 476/620/475
f 467/608/466 438/621/6 474/622/476
f 481/623/8 473/611/469 480/616/472
f 472/610/468 471/612/470 478/618/473 479/615/471
f 470/607/196 469/606/465 476/620/475 477/617/225
f 468/609/467 467/608/466 474/622/476 475/619/474
f 476/620/475 475/619/474 483/624/477 484/625/478
f 474/622/476 438/626/6 482/627/479
f 481/628/8 480/616/472 488/629/480
f 479/615/471 478/618/473 486/630/481 487/631/482
f 477/617/225 476/620/475 484/625/478 485/632/254
f 475/619/474 474/622/476 482/627/479 483/624/477
f 480/616/472 479/615/471 487/631/482 488/629/480
f 478/618/473 477/617/225 485/632/254 486/630/481
f 481/633/8 488/629/480 495/634/483
f 487/631/482 486/630/481 493/635/484 494/636/485
f 485/632/254 484/625/478 491/637/486 492/638/282
f 483/624/477 482/627/479 489/639/487 490/640/488
f 488/629/480 487/631/482 494/636/485 495/634/483
f 486/630/481 485/632/254 492/638/282 493/635/484
f 484/625/478 483/624/477 490/640/488 491/637/486
f 482/627/479 438/641/6 489/639/487
f 490/642/488 489/643/487 496/644/489 497/645/490
f 495/646/483 494/647/485 501/648/491 502/649/492
f 493/650/484 492/651/282 499/652/311 500/653/493
f 491/654/486 490/642/488 497/645/490 498/655/494
f 489/643/487 438/656/6 496/644/489
f 481/657/8 495/646/483 502/649/492
f 494/647/485 493/650/484 500/653/493 501/648/491
f 492/651/282 491/654/486 498/655/494 499/652/311
f 502/649/492 501/648/491 508/658/495 509/659/496
f 500/653/493 499/652/311 506/660/340 507/661/497
f 498/655/494 497/645/490 504/662/498 505/663/499
f 496/644/489 438/664/6 503/665/500
f 481/666/8 502/649/492 509/659/496
f 501/648/491 500/653/493 507/661/497 508/658/495
f 499/652/311 498/655/494 505/663/499 506/660/340
f 497/645/490 496/644/489 503/665/500 504/662/498
f 503/665/500 438/667/6 510/558/433
f 481/668/8 509/659/496 430/562/435
f 508/658/495 507/661/497 513/565/438 514/564/437
f 506/660/340 505/663/499 429/554/429 512/568/1
f 504/662/498 503/665/500 510/558/433 511/555/430
f 509/659/496 508/658/495 514/564/437 430/562/435
f 507/661/497 506/660/340 512/568/1 513/565/438
f 505/663/499 504/662/498 511/555/430 429/554/429
f 567/669/8 516/670/435 523/671/436
f 600/672/437 599/673/438 521/674/439 522/675/440
f 598/676/1 515/677/429 519/678/432 520/679/37
f 597/680/430 596/681/433 517/682/434 518/683/431
f 516/670/435 600/672/437 522/675/440 523/671/436
f 599/673/438 598/676/1 520/679/37 521/674/439
f 515/677/429 597/680/430 518/683/431 519/678/432
f 596/681/433 524/684/6 517/682/434
f 523/671/436 522/675/440 530/685/442 531/686/446
f 521/674/439 520/679/37 528/687/66 529/688/441
f 519/678/432 518/683/431 526/689/445 527/690/443
f 517/682/434 524/691/6 525/692/444
f 567/693/8 523/671/436 531/686/446
f 522/675/440 521/674/439 529/688/441 530/685/442
f 520/679/37 519/678/432 527/690/443 528/687/66
f 518/683/431 517/682/434 525/692/444 526/689/445
f 529/688/441 528/687/66 535/694/94 536/695/449
f 527/690/443 526/689/445 533/696/450 534/697/451
f 525/692/444 524/698/6 532/699/452
f 567/700/8 531/686/446 538/701/448
f 530/685/442 529/688/441 536/695/449 537/702/447
f 528/687/66 527/690/443 534/697/451 535/694/94
f 526/689/445 525/692/444 532/699/452 533/696/450
f 531/686/446 530/685/442 537/702/447 538/701/448
f 567/703/8 538/701/448 545/704/457
f 537/702/447 536/695/449 543/705/453 544/706/458
f 535/694/94 534/697/451 541/707/455 542/708/124
f 533/696/450 532/699/452 539/709/456 540/710/454
f 538/701/448 537/702/447 544/706/458 545/704/457
f 536/695/449 535/694/94 542/708/124 543/705/453
f 534/697/451 533/696/450 540/710/454 541/707/455
f 532/699/452 524/711/6 539/709/456
f 542/708/124 541/707/455 548/712/462 549/713/167
f 540/710/454 539/709/456 546/714/463 547/715/464
f 545/704/457 544/706/458 551/716/461 552/717/459
f 543/705/453 542/708/124 549/713/167 550/718/460
f 541/707/455 540/710/454 547/715/464 548/712/462
f 539/709/456 524/719/6 546/714/463
f 567/720/8 545/704/457 552/717/459
f 544/706/458 543/705/453 550/718/460 551/716/461
f 552/717/459 551/716/461 558/721/468 559/722/469
f 550/718/460 549/713/167 556/723/196 557/724/470
f 548/712/462 547/715/464 554/725/467 555/726/465
f 546/714/463 524/727/6 553/728/466
f 567/729/8 552/717/459 559/722/469
f 551/716/461 550/718/460 557/724/470 558/721/468
f 549/713/167 548/712/462 555/726/465 556/723/196
f 547/715/464 546/714/463 553/728/466 554/725/467
f 555/726/465 554/725/467 561/730/474 562/731/475
f 553/728/466 524/732/6 560/733/476
f 567/734/8 559/722/469 566/735/472
f 558/721/468 557/724/470 564/736/473 565/737/471
f 556/723/196 555/726/465 562/731/475 563/738/225
f 554/725/467 553/728/466 560/733/476 561/730/474
f 559/722/469 558/721/468 565/737/471 566/735/472
f 557/724/470 556/723/196 563/738/225 564/736/473
f 567/739/8 566/735/472 574/740/501
f 565/737/471 564/736/473 572/741/481 573/742/482
f 563/738/225 562/731/475 570/743/478 571/744/254
f 561/730/474 560/733/476 568/745/479 569/746/477
f 566/735/472 565/737/471 573/742/482 574/740/501
f 564/736/473 563/738/225 571/744/254 572/741/481
f 562/731/475 561/730/474 569/746/477 570/743/478
f 560/733/476 524/747/6 568/745/479
f 569/746/477 568/745/479 575/748/487 576/749/488
f 574/740/501 573/742/482 580/750/485 581/751/483
f 572/741/481 571/744/254 578/752/282 579/753/484
f 570/743/478 569/746/477 576/749/488 577/754/486
f 568/745/479 524/755/6 575/748/487
f 567/756/8 574/740/501 581/751/483
f 573/742/482 572/741/481 579/753/484 580/750/485
f 571/744/254 570/743/478 577/754/486 578/752/282
f 581/757/483 580/758/485 587/759/491 588/760/492
f 579/761/484 578/762/282 585/763/311 586/764/493
f 577/765/486 576/766/488 583/767/490 584/768/494
f 575/769/487 524/770/6 582/771/489
f 567/772/8 581/757/483 588/760/492
f 580/758/485 579/761/484 586/764/493 587/759/491
f 578/762/282 577/765/486 584/768/494 585/763/311
f 576/766/488 575/769/487 582/771/489 583/767/490
f 582/771/489 524/773/6 589/774/500
f 567/775/8 588/760/492 595/776/496
f 587/759/491 586/764/493 593/777/497 594/778/495
f 585/763/311 584/768/494 591/779/499 592/780/340
f 583/767/490 582/771/489 589/774/500 590/781/498
f 588/760/492 587/759/491 594/778/495 595/776/496
f 586/764/493 585/763/311 592/780/340 593/777/497
f 584/768/494 583/767/490 590/781/498 591/779/499
f 594/778/495 593/777/497 599/673/438 600/672/437
f 592/780/340 591/779/499 515/677/429 598/676/1
f 590/781/498 589/774/500 596/681/433 597/680/430
f 595/776/496 594/778/495 600/672/437 516/670/435
f 593/777/497 592/780/340 598/676/1 599/673/438
f 591/779/499 590/781/498 597/680/430 515/677/429
f 589/774/500 524/782/6 596/681/433
f 567/783/8 595/776/496 516/670/435
usemtl M_Blush
f 602/784/502 601/785/503 603/786/504 604/787/505
f 686/788/506 685/789/507 608/790/508 609/791/509
f 684/792/510 683/793/1 606/794/511 607/795/512
f 682/796/513 602/784/502 604/787/505 605/797/514
f 601/785/503 652/798/6 603/786/504
f 660/799/8 686/788/506 609/791/509
f 685/789/507 684/792/510 607/795/512 608/790/508
f 683/793/1 682/796/513 605/797/514 606/794/511
f 607/795/512 606/794/511 613/800/515 614/801/516
f 605/797/514 604/787/505 611/802/517 612/803/518
f 603/786/504 652/804/6 610/805/519
f 660/806/8 609/791/509 616/807/520
f 608/790/508 607/795/512 614/801/516 615/808/521
f 606/794/511 605/797/514 612/803/518 613/800/515
f 604/787/505 603/786/504 610/805/519 611/802/517
f 609/791/509 608/790/508 615/808/521 616/807/520
f 660/809/8 616/807/520 623/810/522
f 615/808/521 614/801/516 621/811/523 622/812/524
f 613/800/515 612/803/518 619/813/525 620/814/94
f 611/802/517 610/805/519 617/815/526 618/816/527
f 616/807/520 615/808/521 622/812/524 623/810/522
f 614/801/516 613/800/515 620/814/94 621/811/523
f 612/803/518 611/802/517 618/816/527 619/813/525
f 610/805/519 652/817/6 617/815/526
f 620/814/94 619/813/525 626/818/528 627/819/529
f 618/816/527 617/815/526 624/820/530 625/821/531
f 623/810/522 622/812/524 629/822/532 630/823/533
f 621/811/523 620/814/94 627/819/529 628/824/534
f 619/813/525 618/816/527 625/821/531 626/818/528
f 617/815/526 652/825/6 624/820/530
f 660/826/8 623/810/522 630/823/533
f 622/812/524 621/811/523 628/824/534 629/822/532
f 630/823/533 629/822/532 636/827/535 637/828/536
f 628/824/534 627/819/529 634/829/537 635/830/538
f 626/818/528 625/821/531 632/831/539 633/832/540
f 624/820/530 652/833/6 631/834/541
f 660/835/8 630/823/533 637/828/536
f 629/822/532 628/824/534 635/830/538 636/827/535
f 627/819/529 626/818/528 633/832/540 634/829/537
f 625/821/531 624/820/530 631/834/541 632/831/539
f 633/832/540 632/831/539 639/836/542 640/837/543
f 631/834/541 652/838/6 638/839/544
f 660/840/8 637/828/536 644/841/545
f 636/827/535 635/830/538 642/842/546 643/843/547
f 634/829/537 633/832/540 640/837/543 641/844/196
f 632/831/539 631/834/541 638/839/544 639/836/542
f 637/828/536 636/827/535 643/843/547 644/841/545
f 635/830/538 634/829/537 641/844/196 642/842/546
f 660/845/8 644/841/545 651/846/548
f 643/843/547 642/842/546 649/847/549 650/848/550
f 641/844/196 640/837/543 647/849/551 648/850/552
f 639/836/542 638/839/544 645/851/553 646/852/554
f 644/841/545 643/843/547 650/848/550 651/846/548
f 642/842/546 641/844/196 648/850/552 649/847/549
f 640/837/543 639/836/542 646/852/554 647/849/551
f 638/839/544 652/853/6 645/851/553
f 646/852/554 645/851/553 653/854/555 654/855/556
f 651/846/548 650/848/550 658/856/557 659/857/558
f 649/847/549 648/850/552 656/858/559 657/859/560
f 647/849/551 646/852/554 654/855/556 655/860/561
f 645/851/553 652/861/6 653/854/555
f 660/862/8 651/846/548 659/857/558
f 650/848/550 649/847/549 657/859/560 658/856/557
f 648/850/552 647/849/551 655/860/561 656/858/559
f 659/857/558 658/856/557 666/863/562 667/864/563
f 657/859/560 656/858/559 664/865/282 665/866/564
f 655/860/561 654/855/556 662/867/565 663/868/566
f 653/854/555 652/869/6 661/870/567
f 660/871/8 659/857/558 667/864/563
f 658/856/557 657/859/560 665/866/564 666/863/562
f 656/858/559 655/860/561 663/868/566 664/865/282
f 654/855/556 653/854/555 661/870/567 662/867/565
f 661/872/567 652/873/6 668/874/568
f 660/875/8 667/876/563 674/877/569
f 666/878/562 665/879/564 672/880/570 673/881/571
f 664/882/282 663/883/566 670/884/572 671/885/573
f 662/886/565 661/872/567 668/874/568 669/887/574
f 667/876/563 666/878/562 673/881/571 674/877/569
f 665/879/564 664/882/282 671/885/573 672/880/570
f 663/883/566 662/886/565 669/887/574 670/884/572
f 673/881/571 672/880/570 679/888/575 680/889/576
f 671/885/573 670/884/572 677/890/577 678/891/578
f 669/887/574 668/874/568 675/892/579 676/893/580
f 674/877/569 673/881/571 680/889/576 681/894/581
f 672/880/570 671/885/573 678/891/578 679/888/575
f 670/884/572 669/887/574 676/893/580 677/890/577
f 668/874/568 652/895/6 675/892/579
f 660/896/8 674/877/569 681/894/581
f 681/894/581 680/889/576 685/789/507 686/788/506
f 679/888/575 678/891/578 683/793/1 684/792/510
f 677/890/577 676/893/580 602/784/502 682/796/513
f 675/892/579 652/897/6 601/785/503
f 660/898/8 681/894/581 686/788/506
f 680/889/576 679/888/575 684/792/510 685/789/507
f 678/891/578 677/890/577 682/796/513 683/793/1
f 676/893/580 675/892/579 601/785/503 602/784/502
f 772/899/506 771/900/507 694/901/508 695/902/509
f 770/903/510 769/904/1 692/905/511 693/906/512
f 768/907/513 688/908/502 690/909/505 691/910/514
f 687/911/503 738/912/6 689/913/504
f 746/914/8 772/899/506 695/902/509
f 771/900/507 770/903/510 693/906/512 694/901/508
f 769/904/1 768/907/513 691/910/514 692/905/511
f 688/908/502 687/911/503 689/913/504 690/909/505
f 746/915/8 695/902/509 702/916/520
f 694/901/508 693/906/512 700/917/516 701/918/521
f 692/905/511 691/910/514 698/919/518 699/920/515
f 690/909/505 689/913/504 696/921/519 697/922/517
f 695/902/509 694/901/508 701/918/521 702/916/520
f 693/906/512 692/905/511 699/920/515 700/917/516
f 691/910/514 690/909/505 697/922/517 698/919/518
f 689/913/504 738/923/6 696/921/519
f 699/920/515 698/919/518 705/924/525 706/925/94
f 697/922/517 696/921/519 703/926/526 704/927/527
f 702/916/520 701/918/521 708/928/524 709/929/522
f 700/917/516 699/920/515 706/925/94 707/930/523
f 698/919/518 697/922/517 704/927/527 705/924/525
f 696/921/519 738/931/6 703/926/526
f 746/932/8 702/916/520 709/929/522
f 701/918/521 700/917/516 707/930/523 708/928/524
f 709/929/522 708/928/524 715/933/532 716/934/533
f 707/930/523 706/925/94 713/935/529 714/936/534
f 705/924/525 704/927/527 711/937/531 712/938/528
f 703/926/526 738/939/6 710/940/530
f 746/941/8 709/929/522 716/934/533
f 708/928/524 707/930/523 714/936/534 715/933/532
f 706/925/94 705/924/525 712/938/528 713/935/529
f 704/927/527 703/926/526 710/940/530 711/937/531
f 712/938/528 711/937/531 718/942/539 719/943/540
f 710/940/530 738/944/6 717/945/541
f 746/946/8 716/934/533 723/947/536
f 715/933/532 714/936/534 721/948/538 722/949/535
f 713/935/529 712/938/528 719/943/540 720/950/537
f 711/937/531 710/940/530 717/945/541 718/942/539
f 716/934/533 715/933/532 722/949/535 723/947/536
f 714/936/534 713/935/529 720/950/537 721/948/538
f 746/951/8 723/947/536 730/952/545
f 722/949/535 721/948/538 728/953/546 729/954/547
f 720/950/537 719/943/540 726/955/543 727/956/196
f 718/942/539 717/945/541 724/957/544 725/958/542
f 723/947/536 722/949/535 729/954/547 730/952/545
f 721/948/538 720/950/537 727/956/196 728/953/546
f 719/943/540 718/942/539 725/958/542 726/955/543
f 717/945/541 738/959/6 724/957/544
f 725/958/542 724/957/544 731/960/553 732/961/554
f 730/952/545 729/954/547 736/962/550 737/963/548
f 728/953/546 727/956/196 734/964/552 735/965/549
f 726/955/543 725/958/542 732/961/554 733/966/551
f 724/957/544 738/967/6 731/960/553
f 746/968/8 730/952/545 737/963/548
f 729/954/547 728/953/546 735/965/549 736/962/550
f 727/956/196 726/955/543 733/966/551 734/964/552
f 737/963/548 736/962/550 744/969/557 745/970/558
f 735/965/549 734/964/552 742/971/559 743/972/560
f 733/966/551 732/961/554 740/973/556 741/974/561
f 731/960/553 738/975/6 739/976/555
f 746/977/8 737/963/548 745/970/558
f 736/962/550 735/965/549 743/972/560 744/969/557
f 734/964/552 733/966/551 741/974/561 742/971/559
f 732/961/554 731/960/553 739/976/555 740/973/556
f 739/976/555 738/978/6 747/979/567
f 746/980/8 745/970/558 753/981/563
f 744/969/557 743/972/560 751/982/564 752/983/562
f 742/971/559 741/974/561 749/984/566 750/985/282
f 740/973/556 739/976/555 747/979/567 748/986/565
f 745/970/558 744/969/557 752/983/562 753/981/563
f 743/972/560 742/971/559 750/985/282 751/982/564
f 741/974/561 740/973/556 748/986/565 749/984/566
f 752/987/562 751/988/564 758/989/570 759/990/571
f 750/991/282 749/992/566 756/993/572 757/994/573
f 748/995/565 747/996/567 754/997/568 755/998/574
f 753/999/563 752/987/562 759/990/571 760/1000/569
f 751/988/564 750/991/282 757/994/573 758/989/570
f 749/992/566 748/995/565 755/998/574 756/993/572
f 747/996/567 738/1001/6 754/997/568
f 746/1002/8 753/999/563 760/1000/569
f 760/1000/569 759/990/571 766/1003/576 767/1004/581
f 758/989/570 757/994/573 764/1005/578 765/1006/575
f 756/993/572 755/998/574 762/1007/580 763/1008/577
f 754/997/568 738/1009/6 761/1010/579
f 746/1011/8 760/1000/569 767/1004/581
f 759/990/571 758/989/570 765/1006/575 766/1003/576
f 757/994/573 756/993/572 763/1008/577 764/1005/578
f 755/998/574 754/997/568 761/1010/579 762/1007/580
f 765/1006/575 764/1005/578 769/904/1 770/903/510
f 763/1008/577 762/1007/580 688/908/502 768/907/513
f 761/1010/579 738/1012/6 687/911/503
f 746/1013/8 767/1004/581 772/899/506
f 766/1003/576 765/1006/575 770/903/510 771/900/507
f 764/1005/578 763/1008/577 768/907/513 769/904/1
f 762/1007/580 761/1010/579 687/911/503 688/908/502
f 767/1004/581 766/1003/576 771/900/507 772/899/506
