<svg xmlns="http://www.w3.org/2000/svg" viewBox="0 0 32 32" width="32" height="32">
  <path d="M16 2 C10 8 8 16 11 25 C11 28 14 30 16 30 C16.5 30 17 28 17 25 C20 16 22 8 16 2 Z" fill="#ffffff"/>
  <!-- Feather quill / shaft -->
  <path d="M16 3 L16 29" stroke="#ffffff" stroke-width="1.2" stroke-linecap="round"/>
  <!-- Barbs detail -->
  <path d="M16 8 Q12 10 10 12 M16 12 Q11 15 9 17 M16 17 Q12 20 11 23" stroke="#ffffff" stroke-width="1.0" stroke-linecap="round" fill="none" opacity="0.9"/>
  <path d="M16 8 Q20 10 22 12 M16 12 Q21 15 23 17 M16 17 Q20 20 21 23" stroke="#ffffff" stroke-width="1.0" stroke-linecap="round" fill="none" opacity="0.9"/>
</svg>
